<svg width="28" height="34" viewBox="0 0 28 34" fill="none" xmlns="http://www.w3.org/2000/svg">
<path d="M23.2548 17.8629C23.2713 16.584 23.6143 15.3301 24.2523 14.2178C24.8903 13.1054 25.8026 12.1708 26.9043 11.501C26.2046 10.5125 25.2813 9.69893 24.2083 9.12504C23.1354 8.55115 21.9418 8.23264 20.7221 8.19497C18.1222 7.92484 15.6004 9.73453 14.2751 9.73453C12.9237 9.73453 10.8835 8.2218 8.68555 8.26643C7.26415 8.31189 5.87982 8.72076 4.6656 9.45328C3.45138 10.1858 2.44981 11.2169 1.75832 12.4462C-1.23675 17.5768 0.996858 25.1169 3.86571 29.2641C5.30219 31.2948 6.98014 33.5633 9.17534 33.4828C11.3239 33.3947 12.1251 32.1276 14.7196 32.1276C17.288 32.1276 18.0412 33.4828 20.2803 33.4316C22.5867 33.3947 24.0382 31.3919 25.4239 29.342C26.4557 27.895 27.2487 26.2957 27.7756 24.6035C26.4365 24.0431 25.2936 23.1051 24.4896 21.9064C23.6856 20.7077 23.2562 19.3015 23.2548 17.8629Z" fill="white"/>
<path d="M19.0247 5.4673C20.2815 3.9746 20.9003 2.05599 20.7507 0.118896C18.8299 0.318424 17.0559 1.22636 15.7827 2.66179C15.1598 3.36303 14.6824 4.17883 14.3791 5.0626C14.0746 5.94638 13.9497 6.88076 14.0114 7.81223C14.9718 7.82196 15.9213 7.61606 16.7898 7.20984C17.6582 6.80375 18.4224 6.20789 19.0247 5.4673Z" fill="white"/>
</svg>
