<svg width="64" height="11" viewBox="0 0 64 11" fill="none" xmlns="http://www.w3.org/2000/svg">
<path d="M62.4248 10.9943C62.6978 11.0359 62.9528 10.8482 62.9943 10.5752L63.6713 6.12643C63.7128 5.85343 63.5252 5.59844 63.2522 5.5569C62.9792 5.51536 62.7242 5.70299 62.6827 5.97599L62.0809 9.93047L58.1264 9.32873C57.8534 9.28719 57.5984 9.47482 57.5569 9.74782C57.5154 10.0208 57.703 10.2758 57.976 10.3173L62.4248 10.9943ZM58.4973 5.06045L58.9 4.76411L58.4973 5.06045ZM0 1.4873H50.4429V0.487305H0V1.4873ZM58.0945 5.35679L62.0973 10.7963L62.9027 10.2037L58.9 4.76411L58.0945 5.35679ZM50.4429 1.4873C53.4636 1.4873 56.3042 2.92384 58.0945 5.35679L58.9 4.76411C56.9212 2.07505 53.7816 0.487305 50.4429 0.487305V1.4873Z" fill="#828282" style="fill:#828282;fill:color(display-p3 0.5098 0.5098 0.5098);fill-opacity:1;"/>
</svg>
