<svg width="2152" height="2110" viewBox="0 0 2152 2110" fill="none" xmlns="http://www.w3.org/2000/svg">
<path opacity="0.3" fill-rule="evenodd" clip-rule="evenodd" d="M1006.52 901.049L953.231 754.639C952.654 752.993 951.621 750.188 950.131 746.221L951.525 745.658L954.617 754.137C968.173 791.855 976.756 815.671 980.364 825.584C982.858 832.443 995.087 866.01 1007.77 900.591L1006.52 901.049ZM1033.24 893.87L1030.42 873.761L1031.71 873.579C1032.64 880.118 1033.6 886.864 1034.56 893.645L1033.24 893.87ZM1069.83 891.67L1070.61 880.525L1071.93 880.594C1071.68 884.283 1071.42 888.016 1071.17 891.748L1069.83 891.67ZM1177.59 942.108L1185.67 935.18L1186.9 936.6L1178.88 943.528C1178.45 943.034 1178.02 942.567 1177.59 942.108ZM1209.28 992.337L1216.97 989.558L1278.26 967.353L1279.04 969.189C1251.51 979.148 1226.45 988.241 1210.02 994.121C1209.76 993.515 1209.52 992.9 1209.28 992.294V992.337ZM1216.4 1085.87L1269.58 1098.25L1404.2 1129.62L1403.49 1131.46C1325.33 1113.28 1241.07 1093.65 1235.66 1092.26C1233.13 1091.61 1225.76 1089.85 1216 1087.56C1216.14 1086.97 1216.27 1086.41 1216.4 1085.84V1085.87ZM1206.63 1115.31L1210.38 1117.05L1209.76 1118.68L1205.92 1116.87C1206.16 1116.31 1206.38 1115.8 1206.63 1115.26V1115.31ZM1187.78 1147.11L1195.13 1152.67L1194.01 1154.05C1191.89 1152.43 1189.43 1150.59 1186.71 1148.49C1187.08 1147.99 1187.43 1147.52 1187.78 1147.06V1147.11ZM1143.67 1186.81L1158.64 1210.71L1157.46 1211.42C1152.98 1204.25 1147.47 1195.46 1142.49 1187.52L1143.67 1186.81ZM1116.93 1199.8C1128.19 1230.71 1139.9 1262.69 1139.9 1262.69L1172.71 1352.55L1171.25 1353.11C1152.94 1303.02 1132.18 1246.19 1130.99 1242.63C1129.71 1238.79 1121.99 1217.66 1115.63 1200.28L1116.93 1199.8ZM1079.07 1208.8L1080.06 1215.79L1078.7 1215.95C1078.36 1213.59 1078.03 1211.24 1077.71 1208.95L1079.07 1208.8ZM1020.89 1204.69C1018.44 1215.14 1016.14 1225.04 1014.1 1233.8L1012.31 1233.43C1013.59 1228.23 1016.17 1217.24 1019.24 1204.24L1020.89 1204.69ZM960.523 1174.02C938.007 1203.79 919.43 1228.35 919.43 1228.35C919.43 1228.35 850.226 1319.78 803.443 1381.63L801.945 1380.45C855.933 1309.04 934.447 1205.17 938.777 1199.78C941.072 1196.88 949.326 1186.03 959.268 1172.93L960.523 1174.02ZM938.067 1151.64C910.961 1175.1 889.033 1194.08 889.033 1194.08L816.78 1256.63L815.507 1255.12C865.208 1212.08 910.276 1173.09 913.819 1170.16C916.477 1167.96 925.64 1160.08 936.976 1150.24C937.357 1150.75 937.721 1151.2 938.093 1151.64H938.067ZM910.441 1102.18C865.884 1118.21 791.795 1145.05 791.795 1145.05L642.508 1198.88L641.997 1197.4L642.863 1197.08C662.401 1190.03 847.021 1123.14 852.209 1121.27L909.843 1100.37C910.06 1100.97 910.259 1101.59 910.467 1102.18H910.441ZM902.993 1069.33C871.063 1073.66 820.486 1080.69 792.557 1084.56L792.34 1082.83L836.43 1076.71L902.785 1067.45C902.872 1068.05 902.95 1068.68 903.019 1069.33H902.993ZM905.86 1015.21C875.081 1007.97 823.206 995.871 786.789 987.384L787.153 985.652L820.928 993.515L906.301 1013.34C906.171 1013.96 906.033 1014.59 905.868 1015.21H905.86ZM917.594 981.625C869.097 958.788 770.915 912.784 770.915 912.784L592.512 828.961L593.093 827.515L602.004 831.715C624.408 842.212 835.616 941.129 841.539 943.918C843.774 944.966 877.281 960.632 918.46 979.91L917.594 981.625ZM932.863 956.276L916.737 944.03L917.811 942.489L934.014 954.735L932.863 956.276ZM660.34 1391.32L660.712 1391.77C616.19 1430.31 537.649 1498.29 522.909 1511.04C502.575 1528.62 326.199 1681.05 312.628 1692.76L203.716 1786.89L202.85 1785.51C202.85 1785.51 296.642 1704.79 307.735 1695.21C315.131 1688.81 331.375 1674.72 356.467 1652.93C445.501 1575.46 493.822 1533.44 501.432 1526.87C508.568 1520.69 530.531 1501.8 547.072 1487.51L546.847 1487.26L659.431 1389.4L660.764 1390.94L660.34 1391.32ZM835.945 788.622L835.529 788.146L837.071 786.812L888.028 845.425L886.487 846.767L885.439 845.563L885.257 845.728L849.957 804.955L835.884 788.674L835.945 788.622ZM1328.46 813.823L1308.79 830.867L1244.1 887.098L1242.75 885.556L1327.63 811.805L1328.97 813.347L1328.46 813.823ZM668.229 1017.86L668.342 1016.25L801.763 1025.77L801.641 1027.51L774.526 1025.57L668.229 1017.86ZM462.322 1003.14L461.335 1003.08C366.522 996.581 314.58 992.955 305.51 992.199C291.896 991.047 188.699 983.677 179.831 983.036C173.913 982.603 157.921 981.368 131.853 979.33L132.252 977.191C215.125 983.039 263.796 986.503 278.264 987.583L462.46 1000.98L462.322 1003.14ZM1450.71 1074.49C1427.1 1072.76 1347.97 1067.16 1284.28 1062.59L1284.56 1060.61L1445.78 1072.21L1450.97 1072.58L1450.71 1074.49ZM1526.3 1080.06L1526.59 1078.02C1571.62 1081.26 1620.98 1084.8 1632.84 1085.67L1866.18 1102.7L1987.04 1111.51C1986.84 1112.59 1986.74 1113.13 1986.74 1113.13C1986.74 1113.13 1882.81 1105.34 1870.55 1104.4L1816.37 1100.58C1717.26 1093.75 1663.46 1090.04 1654.98 1089.46C1642.31 1088.54 1587.75 1084.4 1582.65 1084.19C1580.22 1084.05 1554.18 1082.15 1526.3 1080.1V1080.06ZM1041.95 1291.93C1043.45 1270.14 1044.55 1254.48 1044.74 1252.64C1045.05 1249.43 1046.1 1234.55 1047.14 1219.3H1048.51C1046.52 1248.08 1044.71 1274.56 1044.71 1274.56C1044.71 1274.56 1044.25 1281.24 1043.52 1291.93H1041.95ZM1035.77 1382.22V1383.85H1037.25C1035.14 1414.38 1033.38 1439.92 1033.24 1441.98C1032.86 1447.3 1024.58 1567.37 1023.41 1584.57C1022.24 1601.77 1011.78 1750.99 1010.97 1762.47C1010.43 1770.13 1008.29 1800.84 1004.53 1854.61L1003.24 1854.52C1003.24 1854.52 1008.98 1775.3 1009.64 1765.93C1010.07 1759.66 1011 1745.89 1012.42 1724.62C1017.41 1649.09 1020.12 1608.1 1020.57 1601.65C1021.24 1591.98 1024.28 1550.37 1024.42 1546.49C1024.56 1542.61 1030.38 1461.27 1031.12 1450.72C1031.36 1446.69 1033.36 1417.24 1035.77 1382.22V1382.22ZM1074.74 821.392L1078.92 761.636L1080.29 761.706C1078.47 786.272 1077.29 802.516 1076.74 810.437C1076.61 812.334 1076.35 816.153 1075.98 821.418L1074.74 821.392ZM1082.87 702.521C1083.08 699.161 1083.3 695.553 1083.53 691.696C1088.27 619.452 1090.92 579.866 1091.48 572.938C1092.35 562.545 1097.71 483.884 1098.19 477.12C1098.5 472.617 1099.4 460.421 1100.9 440.531L1102.63 440.643C1098.37 503.806 1095.86 540.906 1095.09 551.945L1084.55 702.634L1082.87 702.521ZM1536.97 631.334L1538.22 632.772L1527.11 642.376C1479.76 683.039 1449.86 708.748 1437.39 719.504C1431.7 724.423 1411.34 742.021 1385.64 764.312L1384.58 763.091L1526.09 640.86C1528.2 639.024 1531.82 635.849 1536.97 631.334V631.334ZM1593.95 581.607C1668.13 517.07 1709.05 481.549 1716.73 475.042C1729.11 464.554 1821.99 384.109 1829.98 377.181C1835.32 372.562 1849.78 360.149 1873.36 339.942L1874.54 341.752C1800 406.415 1756.21 444.393 1743.17 455.686L1595.44 583.356L1593.95 581.607ZM1282.95 1302.62L1374.34 1408.19C1379.78 1414.48 1502.56 1556.28 1520.14 1576.63L1701.86 1786.92L1795.98 1895.83L1794.61 1896.7C1794.61 1896.7 1713.88 1802.97 1704.35 1791.87C1697.96 1784.48 1683.86 1768.23 1662.07 1743.13C1584.6 1654.08 1542.56 1605.75 1535.96 1598.14C1526.09 1586.72 1483.71 1537.43 1479.67 1532.95C1475.62 1528.46 1392.6 1432.2 1381.8 1419.74C1376.51 1413.61 1329.1 1358.91 1281.46 1303.92L1282.95 1302.62ZM729.631 665.724L649.956 573.492C645.008 567.776 630.286 550.932 605.789 522.959C531.679 437.8 491.12 391.098 484.111 382.853C473.65 370.478 393.178 277.588 386.25 269.594C381.631 264.265 369.218 249.808 349.01 226.224L350.829 225.046C415.522 299.605 453.506 343.394 464.781 356.414L651.498 572.444C692.167 619.787 717.876 649.691 728.626 662.156L730.817 664.693L729.631 665.724ZM448.465 1269.43C389.541 1290.94 356.632 1302.89 349.738 1305.29C336.834 1309.78 239.561 1345.02 231.196 1348.03C225.618 1350.04 210.509 1355.42 185.868 1364.17L185.357 1362.05C263.438 1333.68 309.306 1317.03 322.96 1312.11L447.669 1267.14L448.465 1269.43ZM1432.01 913.771L1431.25 912.039C1462.5 900.781 1581.46 857.696 1600.34 850.889L1820.4 771.492L1934.39 730.39L1934.78 731.992C1934.78 731.992 1836.7 767.092 1825.09 771.275C1817.34 774.064 1800.33 780.244 1774.06 789.817C1680.72 823.881 1630.06 842.356 1622.08 845.243C1610.12 849.573 1558.59 867.95 1553.84 869.838C1549.1 871.726 1448.4 907.856 1435.35 912.568L1432.01 913.771ZM1204.24 1438.9C1216.65 1472.89 1241.93 1542.09 1246.44 1554.5C1252.34 1570.71 1303.51 1711.25 1307.44 1722.08L1339.03 1808.87L1337.82 1809.31C1337.82 1809.31 1310.84 1734.61 1307.62 1725.78C1305.48 1719.88 1300.74 1706.93 1293.37 1686.91C1267.19 1615.89 1253 1577.35 1250.8 1571.27C1247.48 1562.17 1233.34 1522.92 1231.89 1519.31C1230.69 1516.33 1211.45 1463.27 1202.81 1439.44L1204.24 1438.9ZM906.916 629.212C901.472 614.363 898.239 605.489 897.217 602.59C893.753 592.752 866.689 518.698 864.368 512.333C862.827 508.09 858.693 496.577 851.967 477.796L853.569 477.216C875.37 536.66 888.161 571.578 891.943 581.97L908.856 628.45L906.916 629.212ZM920.426 1342.7L922.21 1343.56L853.906 1489.14C850.373 1496.67 770.767 1666.53 759.327 1690.86C747.887 1715.18 648.761 1926.17 641.14 1942.4L579.92 2072.68L578.552 2071.81C578.552 2071.81 631.38 1959.92 637.633 1946.66C641.79 1937.81 650.9 1918.33 664.964 1888.21C714.831 1781.22 741.903 1723.16 746.181 1714.04C752.598 1700.38 780.389 1641.62 782.823 1636.1C785.256 1630.58 839.444 1515.55 846.459 1500.63C850.234 1492.59 886.816 1414.46 920.426 1342.7V1342.7ZM1191.89 764.486L1193.44 765.352L1160.65 835.37C1160.05 836.634 1154.83 847.789 1146.95 864.65L1145.33 863.784C1167.41 816.742 1191.77 764.702 1191.77 764.702L1191.89 764.486ZM1224.08 695.957L1321.87 487.851C1325.08 481.009 1334.49 460.721 1350.08 426.986C1397.73 324.639 1423.9 268.595 1428.59 258.856C1435.63 244.237 1487.75 132.935 1492.25 123.374C1495.25 117.023 1503.41 99.8068 1516.73 71.7244L1518.55 72.9108C1476.77 162.291 1452.21 214.792 1444.87 230.415C1437.53 246.038 1397.05 332.191 1323.43 488.872C1296.7 545.285 1279.83 580.937 1272.85 595.827C1268.37 605.353 1247.86 649.131 1225.55 696.736L1224.08 695.957ZM445.14 760L433.189 754.474C330.841 706.831 274.797 680.663 265.057 675.969C250.439 668.928 139.137 616.802 129.576 612.316C123.225 609.32 106.008 601.156 77.9255 587.825L79.1033 586.015C168.518 627.775 221.026 652.332 236.626 659.688L445.945 758.042L445.14 760ZM1532.15 1270.02L1506.89 1258.1C1499.16 1254.47 1426.6 1220.51 1357.23 1188.01L1357.93 1186.16L1495.4 1250.61L1532.9 1268.2L1532.15 1270.02ZM1679.63 1339.22L1680.35 1337.35C1688.02 1340.95 1693.83 1343.67 1697.06 1345.15L1948.6 1463.34L2078.89 1524.55C2078.29 1525.47 2078.02 1525.92 2078.02 1525.92C2078.02 1525.92 1966.13 1473.1 1952.86 1466.84C1944.02 1462.69 1924.54 1453.58 1894.42 1439.52C1787.43 1389.67 1729.38 1362.61 1720.28 1358.33C1713.62 1355.25 1696.3 1347.08 1679.64 1339.22H1679.63ZM588.035 1112.7L517.237 1122.43C510.932 1123.3 492.298 1125.98 461.335 1130.47C367.226 1143.82 315.662 1151.06 306.644 1152.19C293.091 1153.92 190.596 1168.14 181.815 1169.35C175.943 1170.16 160.043 1172.27 134.114 1175.71L134.062 1173.53C216.323 1162.02 264.647 1155.27 279.035 1153.29L517.194 1120.55C547.037 1116.57 570.584 1113.42 587.836 1111.1L588.035 1112.7ZM1528.46 983.071C1496.35 987.47 1458.14 992.667 1450.26 993.749C1445.07 994.468 1407.42 999.707 1362.46 1005.95L1362.22 1004L1438.67 993.42L1528.21 981.01L1528.46 983.071ZM1680.32 962.026L1680.07 960.043L1856.22 935.795L1976.27 919.34C1976.27 920.431 1976.32 920.985 1976.32 920.985C1976.32 920.985 1873.08 934.92 1860.86 936.574C1852.71 937.7 1834.78 940.208 1807.07 944.1L1680.32 962.026ZM1013.07 750.3L1011.49 739.042C1010.81 734.238 1008.73 720.05 1005.23 696.476C994.836 624.827 989.195 585.567 988.306 578.697C986.981 568.356 975.887 490.293 974.943 483.581C974.308 479.112 972.657 466.988 969.989 447.208L971.721 446.974C980.682 509.628 985.936 546.437 987.483 557.401C989.03 568.365 997.529 628.848 1012.98 738.851C1013.52 742.748 1014.03 746.501 1014.52 750.11L1013.07 750.3ZM1091.43 1307.05L1092.99 1306.86C1099.68 1354.08 1111.44 1437.09 1111.97 1440.87C1112.71 1446.15 1129.61 1565.31 1132.01 1582.4C1134.41 1599.48 1155.22 1747.6 1156.83 1758.99C1157.89 1766.58 1162.18 1797.07 1169.68 1850.46L1168.41 1850.63C1168.41 1850.63 1157.55 1771.95 1156.24 1762.64C1155.37 1756.44 1153.41 1742.78 1150.37 1721.67C1139.54 1646.75 1133.68 1606.09 1132.78 1599.7C1131.43 1590.11 1125.75 1548.77 1125.08 1544.95C1124.4 1541.13 1113.19 1460.35 1111.72 1449.88C1110.75 1442.98 1099.34 1362.9 1091.43 1307.05V1307.05ZM678.873 1546.24C654.971 1577.82 633.588 1606.07 627.206 1614.49L459.299 1835.98L372.333 1950.67L371.172 1949.51C371.172 1949.51 446.136 1851.06 454.987 1839.37C460.893 1831.58 473.855 1814.42 493.871 1787.89C564.886 1693.59 603.424 1642.44 609.487 1634.43C618.606 1622.41 657.984 1570.71 661.544 1565.77C662.756 1564.04 672.586 1551.05 685.377 1534.21L677.409 1545.17L678.873 1546.24ZM1210.12 841.588L1242.75 798.477L1310.56 709.051L1312 709.822L1211.58 842.645L1210.12 841.588ZM1356.79 648.048L1427.53 554.734C1432.1 548.706 1445.52 530.808 1467.78 501.04C1535.67 410.835 1572.91 361.454 1579.5 352.897C1589.43 340.063 1663.51 242.046 1669.93 233.62C1674.19 228.008 1685.75 212.864 1704.63 188.188L1706.15 189.721C1646.68 268.477 1611.75 314.729 1601.36 328.476L1428.85 556.059C1392.24 604.025 1368.68 634.931 1358.17 648.776L1356.79 648.048ZM1520.69 1398.99L1519.4 1400.57C1489.53 1377.91 1455.56 1352.08 1448.32 1346.61C1443.28 1342.78 1406.88 1315.27 1363.5 1282.47L1364.73 1280.95L1438.64 1336.9C1441.94 1339.39 1480.23 1368.38 1520.69 1398.99ZM1690.22 1527.4L1837.72 1639.25L1952.43 1726.22L1951.27 1727.37C1951.27 1727.37 1852.85 1652.38 1841.18 1643.56C1833.39 1637.66 1816.23 1624.7 1789.69 1604.68L1689.04 1528.87L1690.22 1527.4ZM829.536 877.961L800.299 855.834L590.971 697.152L591.949 695.749C622.151 718.78 642.147 734.01 651.939 741.441C666.688 752.578 775.098 834.591 830.524 876.515L829.536 877.961ZM461.092 599.334C397.3 551.304 361.839 524.533 354.709 519.019C341.874 509.094 243.857 435.014 235.43 428.588C229.819 424.327 214.675 412.763 189.999 393.895L191.531 392.371C270.288 451.838 316.537 486.768 330.278 497.16L462.46 597.386L461.092 599.334ZM544.621 1368.32L543.443 1366.43L594.487 1334.75C639.243 1307.21 667.505 1289.79 679.271 1282.48C689.213 1276.31 746.432 1240.68 795.319 1210.22L796.237 1211.69L595.266 1336.4C589.856 1339.76 573.922 1349.79 547.461 1366.49L544.586 1368.29L544.621 1368.32ZM369.431 1477.44C342.125 1494.41 312.221 1513.03 307.943 1515.68C302.914 1518.8 289.251 1527.2 266.954 1540.89L266.019 1538.92C312.894 1509.67 346.909 1488.45 368.063 1475.27L369.431 1477.44ZM1507.59 769.595C1504.9 771.275 1503.02 772.462 1502.32 772.938C1498.07 775.77 1407.06 832.044 1395.3 839.362C1386.82 844.619 1280.01 911.191 1217.89 949.807L1216.93 948.075L1384.57 843.788L1506.62 767.855L1507.59 769.595ZM1571.93 729.706L1570.93 727.887L1742.6 621.366L1845.56 557.453L1846.27 558.943C1846.27 558.943 1757.63 613.667 1747.14 620.171C1740.15 624.507 1724.79 634.091 1701.06 648.923C1632.49 691.843 1589.44 718.771 1571.93 729.706V729.706ZM1251.6 1359.06L1250.28 1359.84C1237.59 1339.61 1221.13 1313.36 1206.11 1289.42L1207.45 1288.61C1222.02 1311.84 1239.23 1339.3 1251.6 1359.06ZM1300.42 1437C1318.82 1466.37 1339.12 1498.78 1343.98 1506.55L1438.48 1657.8L1487.43 1736.12L1486.33 1736.81C1486.33 1736.81 1444.41 1669.35 1439.43 1661.38C1436.1 1656.05 1428.76 1644.37 1417.41 1626.33C1377.03 1562.28 1355.14 1527.53 1351.72 1522.06C1346.59 1513.85 1324.59 1478.4 1322.42 1475.17C1321.36 1473.6 1310.51 1456.23 1299.04 1437.85L1300.42 1437ZM950.547 880.672L891.83 786.717L893.103 785.98C913.622 819.109 926.633 840.078 932.135 848.889C934.404 852.526 941.895 864.477 951.647 880.066L950.547 880.672ZM825.224 681.234C813.307 662.297 806.379 651.241 804.439 648.066C799.026 639.163 757.136 572.357 753.542 566.616C751.152 562.782 744.714 552.39 734.23 535.439L735.676 534.573C769.364 588.111 789.145 619.579 795.016 628.978L827.059 680.204L825.224 681.234ZM967.131 1426.88C972.968 1401.77 979.178 1375.1 985.058 1349.87L986.989 1350.28L969.089 1427.29L967.131 1426.88ZM950.677 1497.53L940.899 1543.56L941.869 1543.76C930.342 1593.21 900.863 1719.77 895.848 1741.22C889.726 1767.39 836.62 1994.37 832.541 2011.83C829.811 2023.47 818.878 2070.2 799.745 2152L798.221 2151.41C798.221 2151.41 826.652 2030.98 829.987 2016.7C832.215 2007.18 837.074 1986.23 844.562 1953.85C871.08 1838.84 885.485 1776.43 887.777 1766.64C891.241 1751.91 906.18 1688.69 907.401 1682.74C908.622 1676.79 937.712 1553.1 941.488 1537.05C942.302 1533.67 945.706 1518.89 950.703 1497.53H950.677ZM1121.69 765.014L1123.42 765.317C1116.19 796.425 1110.94 819.011 1110.49 820.951C1110.13 822.449 1106.78 836.911 1101.83 858.268L1100.02 857.956C1107.9 824.293 1116.57 787.089 1121.72 765.014H1121.69ZM1152.21 634.46L1195.99 447.554C1197.72 440.193 1202.7 418.389 1210.94 382.143C1236.26 272.135 1250.2 211.874 1252.77 201.36C1256.62 185.598 1284.46 65.896 1286.87 55.6163C1288.47 48.7573 1292.87 30.2186 1300.08 0L1302.09 0.779425C1279.81 96.92 1266.71 153.382 1262.79 170.166C1258.87 186.949 1237.18 279.634 1197.72 448.221C1183.29 508.958 1174.21 547.335 1170.48 563.351C1168.68 571.024 1162.07 599.429 1153.86 634.737L1152.21 634.46ZM628.557 950.404L447.556 908.056C440.195 906.324 418.391 901.341 382.145 893.108C272.136 867.785 211.874 853.851 201.361 851.305C185.599 847.451 65.8963 819.608 55.6165 817.201C48.7575 815.584 30.2187 811.173 0 803.968L0.779428 801.941C96.9204 824.227 153.383 837.33 170.166 841.25L448.223 906.306C508.961 920.74 547.337 929.822 563.353 933.551L628.894 948.811L628.557 950.404ZM1563.25 1168.64L1563.96 1166.81C1621.34 1180.18 1722.28 1203.7 1741.22 1208.13L2011.83 1271.44L2152 1304.24L2151.41 1305.76C2151.41 1305.76 2030.98 1277.33 2016.7 1274C2007.18 1271.77 1986.23 1266.91 1953.85 1259.42C1838.84 1232.9 1776.43 1218.5 1766.63 1216.21C1751.91 1212.75 1688.69 1197.8 1682.74 1196.58C1678.19 1195.65 1604.7 1178.39 1563.25 1168.66V1168.64Z" fill="white" style="fill:white;fill-opacity:1;"/>
</svg>
