<svg width="788" height="561" viewBox="0 0 788 561" fill="none" xmlns="http://www.w3.org/2000/svg">
<path d="M382 229.161C381.459 222.927 377.63 215.452 375.624 209.497C373.481 203.133 371.288 196.783 369.14 190.423C368.87 189.62 368.583 188.788 368 188.172C366.801 186.894 364.762 186.894 363.31 185.916C360.155 183.798 361.441 179.012 361.075 175.229C360.363 167.825 352.955 163.339 350.849 156.439C350.625 155.702 350.446 154.916 350.629 154.166C350.962 152.835 352.447 152.007 353.813 152.136C355.178 152.265 356.376 153.172 357.179 154.283C358.582 156.231 359.11 158.653 360.775 160.471C362.086 161.903 362.286 156.934 362.294 156.401C362.382 151.241 359.909 147.258 355.798 144.278C353.45 142.576 350.887 141.144 348.823 139.109C346.604 136.924 345.04 134.082 344.378 131.04C343.978 129.204 343.87 127.228 342.813 125.675C339.634 121.002 335.934 127.698 333.058 129.142C331.064 130.141 328.626 129.978 326.57 129.109C324.514 128.243 322.791 126.741 321.259 125.113C320.032 123.807 318.875 122.354 318.371 120.635C318.055 119.557 318.084 118.23 318.95 117.514C319.894 116.736 321.347 117.085 322.354 117.776C323.361 118.467 324.168 119.453 325.255 120.011C326.341 120.573 327.927 120.51 328.518 119.441C329.075 118.43 328.443 117.194 327.814 116.228C322.059 107.368 315.441 98.986 309.236 90.4336C303.843 83.0049 298.233 74.952 298.004 65.7754C297.891 61.2349 300.359 55.6915 304.904 55.7372C307.726 55.7622 310.085 58.1094 311.113 60.7396C312.141 63.3699 312.137 66.2664 312.283 69.0839C312.761 78.5269 315.038 87.8783 318.954 96.4848C321.372 101.799 325.517 107.497 331.356 107.376C333.083 107.339 334.931 106.789 336.471 107.576C339.788 109.27 338.273 114.971 341.14 117.348C342.863 118.775 345.227 118.33 347.087 119.345C349.272 120.54 349.975 122.708 350.454 125.068C350.716 126.374 353.313 135.143 355.856 133.112C359.681 130.049 353.363 116.873 352.269 113.365C350.791 108.629 349.838 103.468 351.345 98.7405C352.41 95.3944 354.616 92.552 356.235 89.4348C359.606 82.93 360.255 74.8022 356.892 68.2974C354.653 63.9692 350.874 60.6439 348.232 56.5529C344.936 51.4507 343.525 45.3246 343.158 39.2651C342.88 34.6206 343.1 29.6598 340.678 25.6895C338.248 21.7026 333.716 19.6259 330.003 16.7917C326.291 13.9576 323.103 9.09668 325.013 4.83923C326.05 2.52946 328.409 1.02292 330.865 0.394497C338.023 -1.42834 345.302 3.33684 349.901 9.11749C354.99 15.5182 358.141 23.4422 358.823 31.5909C359.647 41.4001 357.005 51.4507 359.273 61.0268C360.471 66.0833 362.989 70.8568 363.551 76.0632C364.055 80.7285 362.544 85.7267 361.462 90.2422C359.934 96.6138 357.908 103.06 358.12 109.686C358.336 116.395 362.881 120.81 364.159 127.09C365.253 132.484 364.754 136.912 367.434 142.11C369.336 145.797 371.679 149.268 373.269 153.105C375.778 159.156 376.698 166.785 374.417 173.044C373.635 175.192 370.659 173.885 369.615 175.308C368.362 177.01 372.711 184.651 373.377 186.566C374.971 191.139 376.357 195.788 377.53 200.487C379.878 209.888 381.38 219.497 382 229.165V229.161Z" fill="#00FA8D" style="fill:#00FA8D;fill:color(display-p3 0.0000 0.9804 0.5529);fill-opacity:1;"/>
<path d="M325.238 28.3364C328.022 29.0022 330.61 31.3952 331.971 33.8382C334.689 38.7074 334.502 43.8346 335.396 49.1492C337.069 59.0624 354.753 64.3686 349.688 75.8592C349.334 76.6624 348.847 77.4365 348.119 77.9317C344.502 80.3788 342.226 73.6368 340.852 71.5643C337.931 67.1528 334.006 64.2646 332.25 58.9501C331.126 55.5541 330.777 51.9459 329.736 48.5249C329.412 47.4554 328.991 46.3691 328.184 45.5951C326.174 43.664 323.04 44.3341 320.793 42.9191C318.471 41.4583 317.418 38.362 317.359 35.7526C317.309 33.4428 318.196 31.0623 319.969 29.5849C321.634 28.1949 323.473 27.9243 325.238 28.3488V28.3364Z" fill="#00FA8D" style="fill:#00FA8D;fill:color(display-p3 0.0000 0.9804 0.5529);fill-opacity:1;"/>
<path d="M263.995 277.523C256.97 270.129 242.945 270.069 242.945 270.069C232.919 271.881 225.005 281.243 227.137 291.483C228.036 295.797 230.902 299.986 228.181 304.26C224.067 310.716 212.778 308.205 206.836 306.562C200.929 304.929 195.302 302.463 191.762 300.68C182.91 296.222 173.808 291.384 163.642 291.234C153.437 291.084 143.466 295.927 133.26 293.141C131.832 292.752 126.45 290.455 127.109 288.278C127.663 286.451 131.228 287.135 132.641 287.04C138.118 286.67 136.78 279.061 141.609 277.778C143.591 277.249 145.688 277.473 147.745 277.413C159.059 277.074 151.12 268.206 145.713 265.71C141.883 263.943 137.754 264.107 133.64 264.472C131.538 264.657 115.95 265.67 117.463 261.261C117.682 260.632 118.237 260.178 118.821 259.853C120.089 259.154 121.557 258.905 122.91 258.375C129.845 255.644 122.501 251.176 117.932 252.933C115.885 253.722 114.172 255.17 112.275 256.253C106.553 259.509 96.6573 256.323 92.0987 252.114C91.904 251.935 91.7043 251.72 91.6993 251.455C91.6943 251.066 92.1137 250.826 92.4782 250.681C94.6152 249.838 97.4461 249.997 98.7992 247.88C100.012 245.988 98.7493 243.417 99.638 241.39C100.662 239.053 103.423 237.645 105.789 237.126C109.459 236.322 129.321 234.914 121.597 226.386C119.969 224.588 117.722 223.43 115.316 222.671C113.084 221.957 110.712 221.588 108.57 221.368C105.18 221.013 101.635 221.403 98.6195 222.996C94.8099 225.008 92.0887 228.488 87.9446 229.946C83.3361 231.558 78.1535 231.079 73.4252 230.36C53.2887 227.284 32.7429 231.489 12.5864 227.225C9.92522 226.66 7.13916 225.946 4.88235 224.513C3.91872 223.914 3.04996 223.175 2.33098 222.267C-4.6691 213.479 5.57638 201.047 13.5701 197.512C19.4767 194.895 26.1622 194.546 32.5831 195.215C39.004 195.889 45.2801 197.537 51.6161 198.78C50.1482 198.705 48.6753 198.62 47.2123 198.555C51.3714 199.129 65.3117 202.145 66.495 195.709C67.6534 189.353 53.6632 183.786 49.2395 182.887C44.0368 181.834 38.6794 181.459 33.6116 179.872C28.9432 178.404 22.1628 173.676 25.4532 167.964C27.5302 164.354 33.0824 163.819 36.7871 164.044C58.3016 165.362 80.2056 178.119 97.6708 189.848C98.959 190.711 100.292 191.92 100.237 193.467C100.162 195.485 97.8656 196.563 95.9133 197.082C93.9411 197.607 80.57 199.139 87.3055 203.154C88.8184 204.052 90.7007 203.913 92.4532 203.798C103.912 203.049 115.516 204.697 126.37 208.411C133.67 210.913 146.866 215.651 150.561 223.125C151.509 225.048 151.694 227.609 150.206 229.152C148.888 230.51 146.666 230.625 144.909 229.921C142.003 228.767 140.211 225.886 137.275 224.728C133.54 223.25 129.85 224.169 131.373 228.902C132.402 232.103 135.442 235.068 137.829 237.315C143.526 242.683 150.121 249.283 157.96 251.28C162.035 252.319 161.83 251.46 164.052 248.669C165.49 246.867 165.869 245.264 168.62 246.697C169.973 247.401 170.892 248.704 171.696 249.992C174.692 254.795 178.731 259.01 184.747 259.274C186.989 259.374 189.341 258.965 191.398 259.853C192.112 260.158 192.716 260.587 193.235 261.117C197.055 264.991 196.276 274.123 199.956 278.342C202.942 281.767 206.846 285.088 211.1 286.82C213.457 287.774 216.368 287.779 218.335 286.166C219.273 285.387 219.908 284.339 220.442 283.23C220.681 282.736 220.906 282.237 221.131 281.742C223.013 277.608 225.395 273.609 228.735 270.523C240.558 259.599 254.898 267.947 264 277.523H263.995Z" fill="#00FA8D" style="fill:#00FA8D;fill:color(display-p3 0.0000 0.9804 0.5529);fill-opacity:1;"/>
<path d="M778.828 73.9444C777.564 68.9522 775.623 64.9784 771.831 61.4335C771.397 61.0258 770.948 60.6363 770.496 60.2555C767.195 57.5185 763.288 55.4628 759.105 54.5162C750.654 52.6077 741.912 55.9759 734.942 60.6743C729.21 64.5401 725.155 70.1386 720.69 75.3065C718.153 78.2482 715.453 81.044 712.605 83.6842C708.651 87.3519 704.624 91.1184 699.56 93.1112C699.054 93.3044 698.544 93.4895 698.019 93.6501C695.882 94.3078 692.906 94.8334 690.876 93.6238C689.121 92.5819 687.907 90.7016 687.528 88.7111C686.209 81.8673 692.534 78.2147 696.634 74.0856C700.182 70.5106 702.702 65.4123 701.786 60.2891C701.623 59.3729 701.355 58.4641 701.349 57.5367C701.327 55.4869 702.56 53.6121 704.071 52.2241C706.404 50.0756 709.25 48.4272 711.951 46.7889C715.174 44.8285 721.63 40.3071 716.766 36.6551C713.849 34.4612 709.898 34.2558 706.467 35.269C702.936 36.3148 699.894 38.5517 697.337 41.1501C694.633 43.8994 692.718 47.2014 689.748 49.7354C686.569 52.4417 682.87 54.4272 679.168 56.3022C675.536 58.1426 671.947 60.0479 668.347 61.9201C663.466 64.4489 659.366 68.3312 656.362 72.9147C654.999 74.9988 653.874 77.2575 653.07 79.6168C652.235 82.0678 651.745 84.6475 650.548 86.9667C648.395 91.1324 644.395 93.186 640.589 95.5707C638.646 96.7936 636.261 98.4647 633.853 98.4054C634.127 98.3732 636.185 96.7209 636.425 96.5039C636.904 96.0656 637.253 95.3941 637.064 94.7691C636.453 92.7482 631.35 95.3438 630.027 95.5226C629.525 95.5921 628.972 95.5972 628.552 95.312C628.096 94.9996 627.9 94.4006 627.933 93.8492C628.019 92.5281 628.978 91.4132 629.805 90.4652C631.986 87.97 634.804 86.1788 637.535 84.347C640.09 82.6254 643.297 80.6705 644.748 77.8439C645.051 77.2564 645.265 76.1985 644.208 76.2862C643.751 76.327 643.377 76.6429 643.028 76.9358C636.062 82.8382 627.073 86.4494 618.87 90.2732C615.818 91.698 613.086 93.1554 610.421 95.2422C608.211 96.9691 606.179 98.9302 604.378 101.079C601.599 104.396 599.347 108.168 597.786 112.203C597.156 113.831 596.892 115.573 596.3 117.19C594.241 122.8 579.93 128.346 579.93 128.346C577.212 129.636 574.539 131.26 572.502 133.502C570.982 135.176 569.868 137.298 569.62 139.562C569.391 141.677 570.29 143.494 570.843 145.472C571.086 146.328 570.791 146.37 570.072 147.085C569.444 147.712 568.829 148.343 568.218 148.982C566.998 150.26 565.806 151.57 564.644 152.904C562.984 154.813 561.144 157.207 562.51 159.852C563.299 161.379 564.932 161.77 566.103 162.866C567.205 163.89 567.779 165.445 567.583 166.936C567.318 168.972 565.659 170.247 564.591 171.872C563.261 173.881 562.431 176.221 562.071 178.596C561.717 180.928 560.973 182.436 559.74 184.379C558.832 185.809 557.929 187.239 557.022 188.67C553.428 194.351 549.825 200.032 546.231 205.713C546.394 207.059 548.167 205.222 548.507 204.866C552.693 200.506 556.751 196.022 560.821 191.542C562.918 189.231 564.937 186.794 567.161 184.607C569.083 182.717 571.573 181.703 573.886 180.403C576.214 179.084 578.049 176.563 579.36 174.282C579.792 173.532 580.182 172.73 580.228 171.872C580.314 170.321 579.105 168.942 577.725 168.389C577.34 168.233 576.928 168.13 576.6 167.881C574.605 166.333 576.521 161.715 578.069 160.435C585.171 154.591 580.065 150.642 580.065 150.642C578.913 149.51 578.253 148.072 578.821 146.474C579.137 145.583 579.725 144.818 580.325 144.09C584.094 139.559 590.537 137.503 596.046 136.087C598.596 135.43 601.2 134.948 603.642 133.966C605.475 133.223 607.243 132.171 608.572 130.68C609.195 129.981 609.663 129.326 609.78 128.386C610.006 126.536 610.247 125.25 611.687 124.251C611.861 124.128 612.061 124.007 612.274 123.89C614.087 122.919 616.088 122.33 618.106 121.983C621.331 121.427 624.611 121.527 627.861 121.199C630.008 120.983 632.264 120.7 634.176 119.632C634.557 119.418 634.936 119.123 635.313 118.79C637.083 117.218 638.893 114.779 641.307 115.868C642.556 116.435 643.311 118.024 642.876 119.344C642.323 121.022 640.396 121.754 639.379 123.086C638.736 123.927 638.291 124.972 638.374 126.026C638.457 127.079 639.078 127.793 639.965 128.296C640.763 128.746 642.017 128.606 642.639 129.401C643.529 130.542 642.281 132.822 641.801 133.916C641.095 135.537 640.265 137.106 639.329 138.607C638.036 140.669 636.3 142.413 634.954 144.441C634.296 145.428 633.666 146.575 633.589 147.772C633.522 148.811 632.211 152.764 634.383 152.252C634.865 152.142 635.259 151.816 635.641 151.504C640.93 147.163 646.696 143.354 652.571 139.721C657.223 136.838 661.947 134.069 666.564 131.231C672.678 127.474 678.647 123.489 685.326 120.799C690.851 118.77 696.428 116.979 702.278 116.173C706.025 115.657 709.794 115.394 713.57 115.348C715.51 115.454 717.452 115.533 719.391 115.57C726.364 115.719 733.362 115.428 740.271 114.437C740.802 114.361 741.337 114.281 741.863 114.197C744.763 113.736 747.641 113.149 750.483 112.412C753.55 111.62 756.934 110.84 759.698 109.24C766.599 105.24 773.283 100.107 776.801 92.7502C779.611 86.8738 780.417 80.2158 778.826 73.9232L778.828 73.9444ZM715.269 115.364C716.998 115.374 718.726 115.43 720.452 115.525C718.72 115.473 716.997 115.421 715.269 115.364Z" fill="#00FA8D" style="fill:#00FA8D;fill:color(display-p3 0.0000 0.9804 0.5529);fill-opacity:1;"/>
<path d="M382.447 366.38C377.207 370.202 372.626 377.607 368.42 382.578C363.925 387.891 359.469 393.243 354.977 398.56C354.411 399.23 353.825 399.93 353.587 400.777C353.095 402.522 354.19 404.335 354.102 406.147C353.913 410.081 348.98 411.509 345.82 413.859C339.634 418.461 339.625 427.437 334.636 433.007C334.104 433.601 333.502 434.184 332.737 434.42C331.38 434.841 329.845 433.966 329.227 432.683C328.607 431.403 328.77 429.853 329.328 428.545C330.304 426.255 332.17 424.486 332.89 422.039C333.456 420.106 328.942 422.598 328.463 422.876C323.841 425.565 321.63 429.893 321.189 435.14C320.939 438.134 321.039 441.176 320.343 444.098C319.593 447.238 317.912 450.15 315.568 452.368C314.154 453.705 312.455 454.862 311.645 456.632C309.203 461.956 317.128 461.65 319.949 463.426C321.906 464.658 323.068 466.908 323.4 469.198C323.732 471.488 323.324 473.823 322.705 476.051C322.206 477.841 321.536 479.645 320.281 481.012C319.495 481.868 318.3 482.558 317.202 482.175C316.006 481.757 315.534 480.28 315.606 479.012C315.679 477.744 316.122 476.506 316.037 475.24C315.951 473.974 315.047 472.601 313.78 472.653C312.585 472.704 311.827 473.922 311.307 475C306.535 484.858 302.647 495.221 298.386 505.31C294.687 514.078 290.552 523.373 282.534 528.494C278.564 531.028 272.326 531.812 269.929 527.757C268.44 525.238 269.254 521.888 271.036 519.569C272.818 517.249 275.387 515.698 277.814 514.058C285.936 508.568 293.007 501.537 298.545 493.448C301.965 488.453 304.795 481.721 301.556 476.607C300.597 475.091 299.119 473.75 298.993 471.963C298.717 468.113 304.585 466.397 305.156 462.577C305.5 460.282 303.833 458.423 303.738 456.23C303.626 453.651 305.172 451.864 307.013 450.177C308.031 449.242 314.419 442.236 311.252 441.071C306.486 439.319 298.183 451.987 295.658 454.84C292.246 458.693 288.182 462.301 283.18 463.503C279.641 464.353 275.934 463.919 272.305 464.156C264.727 464.653 257.17 468.435 253.202 474.909C250.563 479.216 249.64 484.35 247.426 488.889C244.668 494.546 239.991 499.085 234.811 502.656C230.841 505.397 226.322 507.856 224.095 512.136C221.861 516.428 222.451 521.565 221.926 526.375C221.401 531.186 218.801 536.626 213.998 537.211C211.391 537.53 208.792 536.244 206.919 534.405C201.462 529.034 201.789 520.018 204.451 512.84C207.399 504.89 212.741 497.849 219.604 492.875C227.864 486.886 238.198 483.84 245.478 476.693C249.323 472.92 252.205 468.124 256.524 464.834C260.392 461.883 265.635 460.546 270.22 459.085C276.69 457.023 283.496 455.364 289.258 451.626C295.094 447.838 296.574 441.439 301.463 436.939C305.659 433.074 309.858 431.141 313.027 425.978C315.281 422.311 317.105 418.375 319.651 414.907C323.672 409.436 329.948 404.528 336.725 403.197C339.05 402.742 339.486 406.079 341.307 406.244C343.49 406.444 347.935 398.484 349.274 396.87C352.48 393.004 355.859 389.282 359.396 385.722C366.475 378.599 374.195 372.112 382.44 366.379L382.447 366.38Z" fill="#00FA8D" style="fill:#00FA8D;fill:color(display-p3 0.0000 0.9804 0.5529);fill-opacity:1;"/>
<path d="M234.722 524.413C233.818 521.584 234.555 518.006 235.991 515.489C238.854 510.469 243.501 507.884 247.736 504.241C255.634 497.44 250.857 478.908 263.768 477.243C264.67 477.126 265.619 477.141 266.446 477.522C270.555 479.418 265.795 485.054 264.694 487.384C262.346 492.341 261.888 497.37 258.116 501.777C255.704 504.592 252.69 506.838 250.216 509.6C249.442 510.461 248.7 511.417 248.447 512.547C247.815 515.366 250.085 517.787 250.036 520.539C249.986 523.384 247.804 525.977 245.52 527.429C243.499 528.715 240.912 529.201 238.65 528.423C236.526 527.693 235.299 526.204 234.729 524.414L234.722 524.413Z" fill="#00FA8D" style="fill:#00FA8D;fill:color(display-p3 0.0000 0.9804 0.5529);fill-opacity:1;"/>
<path d="M723.754 522.176C713.416 519.329 704.053 512.972 697.675 504.342C694.988 500.711 692.387 497.046 690.029 493.175C687.318 488.726 684.411 483.322 680.066 480.261C679.652 479.966 679.192 479.687 678.683 479.632C674.798 479.222 682.204 490.104 682.918 491.333C687.088 498.504 691.153 505.77 695.982 512.537C699.408 517.341 703.358 521.526 707.374 525.841C707.758 526.256 708.148 526.675 708.382 527.185C708.907 528.353 708.312 529.192 707.179 529.532C704.252 530.406 701.166 529.991 698.215 528.828C693.246 526.885 688.656 522.845 685.834 519.294C682.818 515.494 680.571 511.194 678.358 506.899C676.506 503.308 674.413 499.837 672.096 496.526C670.897 494.823 669.604 493.081 667.921 491.827C667.651 491.627 667.332 491.408 666.982 491.198C666.148 490.693 665.154 490.259 664.315 490.364C661.234 490.748 665.734 496.242 661.554 495.927C659.781 495.792 658.118 495.043 656.365 494.913C656.215 494.898 656.05 494.898 655.935 494.998C655.721 495.178 655.841 495.523 655.975 495.762C658.567 500.327 665.219 505.97 661.803 511.653C660.625 513.621 658.333 514.959 656.085 514.12C655.036 513.731 654.138 513.032 653.289 512.302C642.037 502.629 637.213 487.737 633.717 473.824C632.873 470.468 631.759 465.084 628.029 463.721C627.29 463.451 626.486 463.426 625.707 463.281C623.569 462.887 621.692 461.563 620.233 459.955C616.877 456.255 614.95 451.356 612.687 446.976C610.964 443.635 606.735 434.931 602.13 439.575C599.453 442.272 601.746 449.748 602.829 452.744C603.898 455.726 605.301 458.712 607.134 461.309C609.247 464.295 611.933 466.887 613.581 470.193C614.211 471.462 614.685 472.845 614.65 474.253C614.615 475.672 614.011 477.12 612.852 477.934C609.806 480.061 607.199 476.321 606.08 473.949C603.568 468.655 602.684 462.792 601.291 457.154C598.684 446.576 591.832 439.205 586.204 430.221C584.656 427.744 580.716 417.536 587.158 417.981C588.087 418.041 588.931 418.53 589.66 419.1C590.829 420.003 591.798 421.147 592.891 422.141C594.185 423.319 596.647 425.182 598.33 423.649C600.632 421.547 596.986 417.462 595.273 416.218C592.497 414.2 589.76 413.311 587.673 410.425C585.82 407.863 584.396 404.597 581.36 403.209C579.862 402.529 578.174 402.435 576.586 402.005C573.175 401.091 570.388 398.714 567.647 396.492C558.952 389.43 549.209 382.908 544 373C549.753 380.057 556.964 385.924 565.05 390.109C572.671 394.06 581.011 396.522 588.497 400.717C594.659 404.178 600.163 408.802 604.657 414.255C609.297 419.889 612.433 426.541 616.583 432.528C619.879 437.288 623.644 441.697 627.405 446.097C631.725 451.151 636.134 456.3 641.328 460.5C642.367 461.349 643.44 462.153 644.549 462.912C647.006 464.595 651.131 466.952 653.988 464.805C658.188 461.643 656.24 456.36 655.965 451.725C655.871 450.207 655.96 448.759 656.5 447.475C657.673 444.699 660.38 443.735 663.212 443.93C673.619 444.659 684.426 453.693 689.68 462.198C690.159 462.977 690.614 463.771 691.043 464.58C693.72 469.594 695.852 474.912 699.019 479.627C706.055 490.104 717.102 495.293 728.978 498.339C736.244 500.202 746.726 504.172 746.551 513.251C746.317 525.102 731.949 524.458 723.754 522.201V522.176Z" fill="#00FA8D" style="fill:#00FA8D;fill:color(display-p3 0.0000 0.9804 0.5529);fill-opacity:1;"/>
</svg>
