<svg width="247" height="163" viewBox="0 0 247 163" fill="none" xmlns="http://www.w3.org/2000/svg">
<path d="M246.58 44.9759C245.651 39.7975 243.96 35.608 240.351 31.722C239.939 31.2753 239.509 30.8459 239.075 30.4252C235.909 27.398 232.074 25.0213 227.879 23.7549C219.403 21.2005 210.25 24.0022 202.807 28.2871C196.686 31.8131 192.149 37.2257 187.225 42.1698C184.427 44.9846 181.473 47.6388 178.38 50.1239C174.086 53.5761 169.709 57.1238 164.404 58.7892C163.875 58.9497 163.341 59.1015 162.794 59.2272C160.569 59.7433 157.498 60.0643 155.516 58.6851C153.802 57.4968 152.7 55.4931 152.457 53.4373C151.607 46.368 158.318 43.1023 162.794 39.1903C166.668 35.8031 169.605 30.7896 169.041 25.5028C168.941 24.5573 168.733 23.6118 168.794 22.6664C168.919 20.5759 170.312 18.7544 171.952 17.449C174.485 15.4279 177.504 13.9533 180.376 12.4788C183.803 10.7136 190.708 6.57178 186.015 2.49934C183.2 0.0532715 179.187 -0.441147 175.617 0.34385C171.943 1.15487 168.681 3.21494 165.887 5.67835C162.933 8.28488 160.743 11.5116 157.533 13.8796C154.097 16.4081 150.184 18.1646 146.276 19.8083C142.441 21.4217 138.646 23.1044 134.841 24.7525C129.684 26.9773 125.225 30.6378 121.832 35.0919C120.292 37.1172 118.982 39.3378 117.993 41.6841C116.965 44.1215 116.28 46.715 114.892 48.9919C112.398 53.0817 108.173 54.8859 104.121 57.0414C102.052 58.1473 99.5012 59.6783 97.0503 59.4441C97.3323 59.4311 99.5489 57.8958 99.8092 57.6919C100.33 57.2799 100.733 56.6207 100.586 55.9702C100.108 53.8667 94.7209 56.1436 93.3588 56.2304C92.8426 56.2651 92.2787 56.2304 91.8709 55.9094C91.4285 55.5581 91.2723 54.9336 91.346 54.3741C91.5282 53.034 92.5867 51.9671 93.4976 51.0607C95.9008 48.6753 98.9025 47.0533 101.818 45.3836C104.546 43.8136 107.956 42.0527 109.639 39.2771C109.99 38.7002 110.285 37.6377 109.201 37.6507C108.732 37.6594 108.329 37.9543 107.951 38.2275C100.425 43.7398 91.0034 46.7714 82.3667 50.0762C79.1524 51.3079 76.2634 52.596 73.3961 54.5303C71.019 56.1306 68.8067 57.9825 66.8156 60.0426C63.7444 63.2216 61.1764 66.9037 59.2938 70.9024C58.5347 72.5158 58.14 74.2723 57.4199 75.877C54.9169 81.4457 39.9298 86.0646 39.9298 86.0646C37.0668 87.1835 34.2255 88.6451 31.9872 90.7832C30.3171 92.3792 29.0288 94.461 28.6123 96.7509C28.2263 98.8891 29.0114 100.806 29.4322 102.862C29.6187 103.751 29.3151 103.773 28.5299 104.449C27.8445 105.043 27.1722 105.642 26.5041 106.249C25.1681 107.463 23.8581 108.712 22.5784 109.987C20.7479 111.813 18.7004 114.121 19.902 116.914C20.596 118.527 22.2314 119.043 23.3462 120.244C24.3959 121.368 24.8688 122.994 24.5608 124.499C24.1444 126.555 22.3615 127.734 21.1556 129.313C19.6547 131.265 18.6397 133.589 18.1018 135.983C17.5725 138.334 16.705 139.817 15.3082 141.708C14.2802 143.1 13.2564 144.493 12.2283 145.885C8.1551 151.414 4.07322 156.944 0 162.474C0.0694053 163.857 2.00841 162.114 2.38147 161.775C6.96222 157.634 11.4215 153.357 15.8938 149.085C18.1972 146.882 20.4312 144.545 22.856 142.476C24.9512 140.689 27.5626 139.835 30.0134 138.677C32.4817 137.501 34.5335 135.064 36.0343 132.835C36.5289 132.102 36.9844 131.312 37.0928 130.441C37.2923 128.866 36.1601 127.374 34.7937 126.711C34.412 126.524 33.9999 126.39 33.6833 126.112C31.7616 124.391 34.0476 119.824 35.7177 118.631C43.3783 113.188 38.4592 108.795 38.4592 108.795C37.3661 107.559 36.7978 106.045 37.4918 104.458C37.8779 103.573 38.533 102.836 39.1966 102.137C43.3653 97.7918 50.0803 96.1611 55.7975 95.1159C58.4436 94.6301 61.133 94.3265 63.6924 93.5025C65.614 92.878 67.4923 91.9325 68.9542 90.51C69.6395 89.8421 70.1644 89.2089 70.3509 88.2591C70.7153 86.3898 71.0537 85.0974 72.5936 84.1823C72.7801 84.0696 72.9927 83.9611 73.2183 83.857C75.1356 82.9983 77.2177 82.5429 79.2999 82.3348C82.627 82.0008 85.9628 82.3391 89.2986 82.2393C91.5022 82.1743 93.8229 82.0485 95.8487 81.0987C96.2521 80.9079 96.6599 80.6347 97.0677 80.3224C98.985 78.8478 101.006 76.4928 103.388 77.7766C104.62 78.4445 105.275 80.1186 104.737 81.4327C104.052 83.1024 102.034 83.7096 100.902 84.9933C100.187 85.8044 99.6573 86.8366 99.666 87.9165C99.6747 88.9964 100.256 89.7684 101.124 90.3452C101.904 90.8613 103.193 90.8092 103.77 91.6636C104.594 92.891 103.158 95.1246 102.59 96.2045C101.753 97.8048 100.794 99.3445 99.7311 100.806C98.2649 102.814 96.3693 104.466 94.851 106.435C94.1093 107.394 93.3848 108.517 93.22 109.732C93.0769 110.785 91.4545 114.719 93.7058 114.355C94.2047 114.277 94.6298 113.973 95.0419 113.683C100.746 109.64 106.897 106.175 113.148 102.896C118.097 100.294 123.112 97.8135 128.022 95.2547C134.525 91.8675 140.897 88.2374 147.898 85.9778C153.676 84.3081 159.489 82.8856 165.51 82.4866C169.366 82.2307 173.227 82.235 177.079 82.4605C179.048 82.7077 181.022 82.9289 182.996 83.1067C190.092 83.7616 197.246 83.9698 204.36 83.458C204.906 83.419 205.457 83.3756 205.999 83.3279C208.988 83.0677 211.964 82.6774 214.913 82.1309C218.097 81.5454 221.602 80.9946 224.535 79.5634C231.857 75.9854 239.041 71.2364 243.157 63.9936C246.445 58.2081 247.747 51.4814 246.58 44.9542V44.9759ZM178.81 82.5993C180.571 82.7338 182.328 82.9159 184.08 83.1371C182.319 82.9593 180.567 82.7815 178.81 82.5993Z" fill="white" style="fill:white;fill-opacity:1;"/>
</svg>
