<svg width="650" height="126" viewBox="0 0 650 126" fill="none" xmlns="http://www.w3.org/2000/svg">
<path fill-rule="evenodd" clip-rule="evenodd" d="M136.414 74.1404L233.721 31L152.091 58.2625L152.387 56.7412L182.268 46.0581L152.67 55.2884L154.718 44.773L0 125.08L143.264 58.3931L136.414 74.1404ZM72.5334 85.1344L10.7575 118.049C10.7575 118.049 67.3285 85.7961 72.5334 85.1344ZM225.663 38.137L161.435 65.9599C161.435 65.9599 220.424 38.3743 225.663 38.137Z" fill="#FF67F8" style="fill:#FF67F8;fill:color(display-p3 1.0000 0.4039 0.9725);fill-opacity:1;"/>
<path fill-rule="evenodd" clip-rule="evenodd" d="M380.767 33.6344L432.959 35.4053L414.91 44.86L486.787 44.585L477.013 54.2257L522.581 52.61L517.319 62.1666C520.532 62.2071 539.483 62.4547 538.59 62.6469C537.791 62.8203 522.196 63.2284 516.657 63.3685L516.07 64.4339L581.932 64.0249L569.165 71.9289C572.782 72.1337 585.014 73.2141 585.014 73.2141L568.14 72.563L567.967 72.6701L648.017 77.0939L549.059 76.7599L562.355 67.8758L505.501 69.2392L510.813 57.2402L461.405 58.994L471.591 51.2965L441.632 51.7118L438.947 50.7495L472.866 50.3333L473.882 49.565L397.139 48.6L414.406 37.0957L380.767 33.6344ZM482.882 52.9036C482.882 52.9036 514.874 50.7753 521.48 51.4588L482.882 52.9036ZM613.189 78.5982C613.189 78.5982 646.784 77.9444 649.287 78.1692C649.287 78.1692 617.346 79.5261 613.189 78.5982ZM386.27 32.5445C386.27 32.5445 415.306 32.3926 428.18 34.0837L386.27 32.5445Z" fill="#FF67F8" style="fill:#FF67F8;fill:color(display-p3 1.0000 0.4039 0.9725);fill-opacity:1;"/>
</svg>
