<svg width="30" height="34" viewBox="0 0 30 34" fill="none" xmlns="http://www.w3.org/2000/svg">
<path d="M14.4289 16.0535L1.09961 30.7125C1.10086 30.7151 1.10086 30.719 1.10211 30.7217C1.5115 32.3133 2.91365 33.4848 4.57873 33.4848C5.2447 33.4848 5.86951 33.2979 6.40527 32.9711L6.4478 32.9451L21.4509 23.9745L14.4289 16.0535Z" fill="#EA4335"/>
<path d="M27.9125 13.5571L27.8999 13.5481L21.4225 9.65747L14.125 16.3864L21.4487 23.9728L27.8912 20.1213C29.0204 19.4882 29.7879 18.2545 29.7879 16.8327C29.7879 15.4186 29.0316 14.1915 27.9125 13.5571Z" fill="#FBBC04"/>
<path d="M1.09925 2.88989C1.01912 3.19616 0.976562 3.51786 0.976562 3.84999V29.7537C0.976562 30.0858 1.01912 30.4075 1.10051 30.7124L14.8867 16.4282L1.09925 2.88989Z" fill="#4285F4"/>
<path d="M14.5269 16.8017L21.4249 9.65501L6.43933 0.65207C5.89479 0.313476 5.25873 0.118896 4.57904 0.118896C2.91393 0.118896 1.50926 1.29292 1.09988 2.88591L1.09863 2.88981L14.5269 16.8017Z" fill="#34A853"/>
</svg>
