<svg width="243" height="133" viewBox="0 0 243 133" fill="none" xmlns="http://www.w3.org/2000/svg">
<path d="M242.995 104.526C236.529 97.7172 223.62 97.6621 223.62 97.6621C214.391 99.3308 207.107 107.951 209.07 117.379C209.897 121.351 212.535 125.208 210.03 129.144C206.243 135.088 195.852 132.775 190.383 131.263C184.946 129.76 179.767 127.489 176.509 125.847C168.36 121.742 159.982 117.287 150.625 117.15C141.232 117.012 132.054 121.471 122.66 118.906C121.346 118.547 116.391 116.432 116.998 114.428C117.508 112.745 120.79 113.375 122.09 113.288C127.132 112.948 125.9 105.942 130.344 104.76C132.169 104.273 134.099 104.48 135.992 104.425C146.406 104.112 139.099 95.9473 134.122 93.6487C130.597 92.0213 126.796 92.173 123.009 92.5086C121.075 92.6787 106.727 93.6119 108.119 89.5526C108.321 88.9734 108.831 88.555 109.369 88.2562C110.536 87.6126 111.888 87.3827 113.133 86.8954C119.517 84.3808 112.756 80.2663 108.551 81.8845C106.667 82.6109 105.091 83.944 103.344 84.9416C98.0774 87.939 88.9686 85.006 84.7727 81.1305C84.5935 80.965 84.4096 80.7674 84.405 80.5237C84.4004 80.1651 84.7865 79.9445 85.122 79.8112C87.089 79.0342 89.6947 79.1813 90.9402 77.2321C92.057 75.4898 90.8942 73.1222 91.7123 71.2558C92.6544 69.1043 95.1959 67.8079 97.3742 67.3298C100.752 66.5896 119.034 65.2932 111.924 57.4412C110.426 55.7862 108.358 54.7197 106.143 54.0209C104.089 53.3635 101.906 53.0233 99.9341 52.821C96.8136 52.4946 93.5506 52.8532 90.7747 54.3197C87.2682 56.1724 84.7635 59.3766 80.949 60.719C76.7071 62.2039 71.9367 61.7626 67.5845 61.1006C49.0499 58.2687 30.1383 62.1396 11.5853 58.2135C9.13571 57.6941 6.57127 57.0367 4.49399 55.7173C3.607 55.1656 2.80735 54.4852 2.14556 53.6485C-4.29769 45.5575 5.13281 34.1105 12.4906 30.8556C17.9274 28.4467 24.0811 28.1249 29.9913 28.7409C35.9014 29.3616 41.6783 30.8786 47.5103 32.0233C46.1591 31.9544 44.8034 31.8762 43.4568 31.8165C47.2851 32.3451 60.1164 35.1218 61.2056 29.1961C62.2718 23.3438 49.3945 18.218 45.3227 17.3905C40.5339 16.4205 35.6027 16.0757 30.938 14.6138C26.6409 13.2622 20.3999 8.90865 23.4285 3.64946C25.3403 0.325686 30.4508 -0.166216 33.8609 0.0406573C53.664 1.25432 73.8256 13.0002 89.9015 23.799C91.0872 24.5943 92.3143 25.7068 92.2638 27.1319C92.1948 28.9892 90.0808 29.9822 88.2839 30.4603C86.4685 30.943 74.1611 32.3543 80.3607 36.0505C81.7533 36.878 83.4859 36.7493 85.099 36.6435C95.6462 35.9539 106.327 37.471 116.318 40.8913C123.037 43.1945 135.184 47.5572 138.584 54.4392C139.458 56.2092 139.628 58.5675 138.258 59.9881C137.045 61.2385 135 61.3442 133.382 60.696C130.707 59.6341 129.057 56.9815 126.355 55.915C122.917 54.5542 119.521 55.4001 120.923 59.7582C121.87 62.705 124.668 65.4357 126.865 67.5045C132.109 72.4464 138.18 78.5239 145.395 80.3628C149.145 81.319 148.957 80.5283 151.002 77.9585C152.326 76.2989 152.675 74.8232 155.207 76.1426C156.453 76.7908 157.298 77.9907 158.038 79.1767C160.796 83.5992 164.514 87.4793 170.052 87.7229C172.115 87.8149 174.28 87.4379 176.173 88.2562C176.83 88.5366 177.386 88.932 177.864 89.4193C181.38 92.9867 180.663 101.395 184.05 105.28C186.798 108.433 190.392 111.49 194.308 113.086C196.477 113.964 199.157 113.968 200.967 112.483C201.831 111.766 202.415 110.801 202.907 109.78C203.127 109.325 203.334 108.865 203.541 108.41C205.273 104.604 207.466 100.921 210.54 98.0804C221.423 88.0217 234.622 95.7083 243 104.526H242.995Z" fill="#B9FA00" style="fill:#B9FA00;fill:color(display-p3 0.7255 0.9804 0.0000);fill-opacity:1;"/>
</svg>
