<svg width="801" height="413" viewBox="0 0 801 413" fill="none" xmlns="http://www.w3.org/2000/svg">
<path d="M0.575442 407.58C0.575442 410.526 2.96326 412.913 5.90878 412.913C8.85429 412.913 11.2421 410.526 11.2421 407.58C11.2421 404.634 8.85429 402.247 5.90878 402.247C2.96326 402.247 0.575442 404.634 0.575442 407.58ZM22.545 301.029L23.4184 301.516L22.545 301.029ZM91.6645 171.108L91.0826 170.295L91.6645 171.108ZM334.078 145.164L333.912 144.178L334.078 145.164ZM587.384 175.267L586.548 175.817L587.384 175.267ZM6.87345 407.317C6.217 404.913 5.58563 401.931 5.05752 398.455L3.08022 398.756C3.61788 402.295 4.264 405.353 4.9441 407.843L6.87345 407.317ZM3.64817 380.291C3.57934 374.679 3.81611 368.558 4.48608 362.07L2.49665 361.865C1.81847 368.432 1.57859 374.63 1.64832 380.316L3.64817 380.291ZM7.37647 344.057C8.62952 338.333 10.245 332.45 12.2918 326.486L10.4001 325.837C8.32714 331.877 6.69134 337.834 5.42273 343.63L7.37647 344.057ZM19.2166 309.613C20.5164 306.914 21.915 304.212 23.4184 301.516L21.6716 300.542C20.1484 303.274 18.7315 306.011 17.4146 308.745L19.2166 309.613ZM23.4184 301.516C24.672 299.268 25.8553 297.046 26.9753 294.85L25.1936 293.941C24.0846 296.116 22.9129 298.316 21.6716 300.542L23.4184 301.516ZM33.3215 281.198C35.3525 276.388 37.1265 271.707 38.7289 267.144L36.8419 266.482C35.2507 271.012 33.4914 275.654 31.479 280.42L33.3215 281.198ZM43.4036 252.846C44.1627 250.387 44.8961 247.962 45.619 245.571C46.3422 243.18 47.0547 240.824 47.7731 238.499L45.8622 237.909C45.1417 240.241 44.4275 242.602 43.7046 244.992C42.9815 247.384 42.2497 249.803 41.4926 252.257L43.4036 252.846ZM52.4914 224.322C54.2139 219.641 56.1088 215.085 58.3267 210.634L56.5365 209.742C54.2787 214.274 52.3558 218.899 50.6144 223.632L52.4914 224.322ZM65.8828 197.875C68.597 194 71.7005 190.189 75.3068 186.428L73.8631 185.044C70.1855 188.88 67.0171 192.77 64.2446 196.728L65.8828 197.875ZM86.2867 176.43C88.1689 174.922 90.1528 173.419 92.2463 171.922L91.0826 170.295C88.9605 171.813 86.9476 173.338 85.036 174.87L86.2867 176.43ZM92.2463 171.922C94.3026 170.451 96.4331 169.085 98.6356 167.818L97.6385 166.085C95.3807 167.383 93.1945 168.784 91.0826 170.295L92.2463 171.922ZM112.444 161.431C117.089 159.727 121.972 158.319 127.077 157.157L126.633 155.206C121.457 156.385 116.491 157.817 111.755 159.554L112.444 161.431ZM142.15 154.48C147.079 153.82 152.172 153.32 157.416 152.947L157.274 150.952C151.996 151.328 146.861 151.831 141.884 152.498L142.15 154.48ZM172.746 152.193C177.758 152.042 182.884 151.967 188.115 151.941L188.105 149.941C182.862 149.967 177.719 150.042 172.685 150.194L172.746 152.193ZM203.502 151.98C208.556 152.021 213.691 152.083 218.902 152.143L218.925 150.143C213.715 150.083 208.576 150.021 203.519 149.98L203.502 151.98ZM234.298 152.295C239.375 152.33 244.512 152.345 249.703 152.321L249.693 150.321C244.512 150.345 239.383 150.33 234.312 150.295L234.298 152.295ZM265.117 152.121C270.214 152.007 275.355 151.84 280.534 151.603L280.443 149.605C275.281 149.841 270.155 150.008 265.072 150.121L265.117 152.121ZM295.933 150.686C301.025 150.307 306.148 149.847 311.296 149.291L311.081 147.303C305.957 147.856 300.856 148.314 295.785 148.691L295.933 150.686ZM326.612 147.348C329.151 146.976 331.695 146.577 334.243 146.15L333.912 144.178C331.378 144.602 328.848 144.999 326.322 145.369L326.612 147.348ZM334.243 146.15C337.002 145.687 339.769 145.221 342.542 144.753L342.209 142.781C339.436 143.249 336.67 143.715 333.912 144.178L334.243 146.15ZM359.14 141.955C364.669 141.029 370.209 140.112 375.747 139.22L375.429 137.246C369.886 138.139 364.341 139.056 358.81 139.982L359.14 141.955ZM392.371 136.631C397.94 135.798 403.493 135.006 409.02 134.272L408.757 132.29C403.217 133.025 397.653 133.819 392.075 134.653L392.371 136.631ZM425.714 132.237C431.339 131.618 436.921 131.079 442.447 130.635L442.287 128.641C436.739 129.087 431.138 129.629 425.495 130.249L425.714 132.237ZM459.213 129.596C464.892 129.356 470.491 129.244 475.995 129.279L476.008 127.279C470.468 127.244 464.836 127.357 459.129 127.598L459.213 129.596ZM492.755 129.884C498.444 130.274 504.003 130.858 509.412 131.664L509.706 129.685C504.24 128.872 498.628 128.282 492.892 127.889L492.755 129.884ZM525.813 134.929C531.318 136.331 536.621 138.023 541.696 140.037L542.434 138.178C537.272 136.13 531.887 134.412 526.307 132.99L525.813 134.929ZM556.669 147.344C561.452 150.179 565.962 153.401 570.169 157.049L571.479 155.538C567.178 151.808 562.57 148.516 557.688 145.624L556.669 147.344ZM581.664 169.062C583.367 171.208 584.996 173.458 586.548 175.817L588.219 174.718C586.634 172.31 584.971 170.011 583.231 167.819L581.664 169.062ZM586.548 175.817C588.032 178.072 589.677 180.204 591.471 182.215L592.963 180.884C591.233 178.943 589.647 176.889 588.219 174.718L586.548 175.817ZM603.659 192.692C607.996 195.578 612.758 198.06 617.857 200.157L618.617 198.308C613.626 196.255 608.983 193.832 604.767 191.027L603.659 192.692ZM633.062 205.064C638.107 206.302 643.361 207.248 648.764 207.914L649.009 205.929C643.677 205.272 638.501 204.339 633.538 203.122L633.062 205.064ZM664.688 209.067C669.934 209.197 675.264 209.094 680.629 208.767L680.507 206.77C675.196 207.094 669.924 207.196 664.737 207.068L664.688 209.067ZM696.485 207.166C701.737 206.428 706.979 205.486 712.171 204.349L711.742 202.395C706.601 203.522 701.408 204.455 696.207 205.186L696.485 207.166ZM727.601 200.339C732.731 198.789 737.763 197.046 742.653 195.115L741.919 193.255C737.082 195.164 732.102 196.89 727.023 198.424L727.601 200.339ZM757.216 188.588C762.063 186.132 766.696 183.473 771.06 180.621L769.966 178.947C765.668 181.756 761.099 184.379 756.312 186.804L757.216 188.588ZM783.831 171.026C787.977 167.424 791.722 163.595 794.988 159.551L793.432 158.294C790.247 162.238 786.586 165.983 782.52 169.516L783.831 171.026ZM803.642 146.029C805.995 141.159 807.683 136.052 808.607 130.728L806.636 130.386C805.746 135.516 804.118 140.445 801.841 145.159L803.642 146.029ZM809.041 114.642C808.741 112.032 808.262 109.384 807.596 106.699L805.654 107.181C806.301 109.784 806.764 112.348 807.054 114.87L809.041 114.642Z" fill="#E0E0E0" style="fill:#E0E0E0;fill:color(display-p3 0.8784 0.8784 0.8784);fill-opacity:1;"/>
<path d="M3.89442 78.0972C1.75963 80.1267 1.67426 83.5025 3.70374 85.6373C5.73322 87.772 9.10902 87.8574 11.2438 85.8279C13.3786 83.7985 13.4639 80.4227 11.4345 78.2879C9.40499 76.1531 6.02919 76.0677 3.89442 78.0972ZM96.2549 20.6058L96.5038 21.5743L96.2549 20.6058ZM225.744 70.1028L225.556 71.0848L225.744 70.1028ZM423.867 138.999L423.087 139.625L423.867 138.999ZM634.123 265.182L634.123 266.182L634.123 265.182ZM8.4247 82.4802C9.71465 80.3481 11.4404 77.8363 13.5957 75.0587L12.0156 73.8327C9.82135 76.6605 8.04993 79.236 6.71353 81.4449L8.4247 82.4802ZM25.7894 61.5219C29.809 57.6057 34.4086 53.5596 39.5725 49.5749L38.3507 47.9915C33.1235 52.0251 28.466 56.1218 24.3937 60.0894L25.7894 61.5219ZM54.6188 39.2589C59.6308 36.223 65.0075 33.3406 70.7404 30.7146L69.9075 28.8963C64.1013 31.5559 58.6569 34.4747 53.5826 37.5483L54.6188 39.2589ZM87.7403 24.1079C90.5923 23.1902 93.5137 22.3425 96.5038 21.5743L96.0061 19.6372C92.9767 20.4156 90.0169 21.2743 87.1276 22.2041L87.7403 24.1079ZM96.5038 21.5743C99.548 20.7922 102.455 20.1847 105.24 19.737L104.922 17.7624C102.073 18.2204 99.1058 18.8408 96.0061 19.6372L96.5038 21.5743ZM122.868 19.0254C129.113 19.6191 134.699 21.1525 139.904 23.3453L140.68 21.5022C135.305 19.2375 129.521 17.6489 123.057 17.0343L122.868 19.0254ZM155.314 32.0819C160.083 35.3928 164.744 39.0733 169.612 42.8589L170.84 41.2801C165.992 37.5105 161.279 33.7886 156.455 30.439L155.314 32.0819ZM184.124 53.5581C188.93 56.7969 194.085 59.8851 199.778 62.6158L200.643 60.8126C195.056 58.1328 189.986 55.097 185.241 51.8995L184.124 53.5581ZM216.71 69.0027C219.533 69.7951 222.478 70.4938 225.556 71.0848L225.933 69.1207C222.91 68.5403 220.02 67.8543 217.25 67.0771L216.71 69.0027ZM225.556 71.0848C228.102 71.5737 230.672 72.0046 233.263 72.3874L233.555 70.4088C230.99 70.0298 228.448 69.6036 225.933 69.1207L225.556 71.0848ZM248.785 74.1621C253.904 74.6063 259.092 74.9447 264.329 75.2457L264.444 73.249C259.215 72.9485 254.05 72.6114 248.957 72.1696L248.785 74.1621ZM279.873 76.0885C285.008 76.3719 290.179 76.683 295.376 77.0831L295.529 75.089C290.311 74.6873 285.124 74.3753 279.984 74.0916L279.873 76.0885ZM310.821 78.5851C315.916 79.2026 321.024 79.961 326.133 80.9162L326.501 78.9502C321.343 77.986 316.192 77.2215 311.062 76.5996L310.821 78.5851ZM341.218 84.3616C346.129 85.7053 351.033 87.2821 355.921 89.1417L356.632 87.2724C351.68 85.3883 346.714 83.7919 341.746 82.4325L341.218 84.3616ZM370.043 95.3735C374.527 97.6424 378.99 100.195 383.426 103.071L384.514 101.393C380.018 98.4773 375.493 95.8894 370.946 93.589L370.043 95.3735ZM395.931 112.134C399.812 115.259 403.667 118.669 407.49 122.392L408.886 120.959C405.019 117.193 401.117 113.741 397.185 110.576L395.931 112.134ZM418.11 133.661C419.777 135.582 421.436 137.569 423.087 139.625L424.647 138.373C422.98 136.297 421.304 134.291 419.621 132.351L418.11 133.661ZM423.087 139.625C424.75 141.695 426.421 143.75 428.102 145.787L429.645 144.515C427.97 142.484 426.304 140.436 424.647 138.373L423.087 139.625ZM438.381 157.905C441.886 161.92 445.429 165.86 449.011 169.718L450.476 168.358C446.909 164.515 443.379 160.59 439.888 156.59L438.381 157.905ZM460.015 181.186C463.775 184.972 467.576 188.666 471.418 192.259L472.784 190.799C468.961 187.223 465.177 183.546 461.434 179.776L460.015 181.186ZM483.244 202.885C487.291 206.373 491.382 209.746 495.517 212.998L496.753 211.426C492.643 208.193 488.575 204.839 484.55 201.37L483.244 202.885ZM508.257 222.524C512.617 225.616 517.024 228.57 521.478 231.377L522.545 229.685C518.122 226.898 513.745 223.964 509.414 220.892L508.257 222.524ZM535.189 239.463C539.87 242.035 544.602 244.442 549.383 246.676L550.23 244.864C545.489 242.65 540.796 240.262 536.152 237.71L535.189 239.463ZM564.04 252.907C569.014 254.814 574.04 256.53 579.119 258.047L579.691 256.13C574.662 254.629 569.684 252.929 564.756 251.04L564.04 252.907ZM594.556 261.994C599.741 263.099 604.978 263.993 610.268 264.668L610.521 262.684C605.287 262.017 600.105 261.131 594.973 260.038L594.556 261.994ZM626.152 266.014C628.797 266.126 631.454 266.182 634.123 266.182L634.123 264.182C631.482 264.182 628.853 264.126 626.237 264.016L626.152 266.014ZM634.123 266.182C636.761 266.182 639.462 266.354 642.22 266.671L642.449 264.684C639.625 264.359 636.847 264.182 634.123 264.182L634.123 266.182ZM658.261 269.81C663.387 271.148 668.643 272.773 673.999 274.545L674.627 272.646C669.249 270.867 663.95 269.227 658.766 267.874L658.261 269.81ZM689.598 279.896C694.766 281.693 699.995 283.496 705.251 285.184L705.862 283.279C700.631 281.6 695.422 279.803 690.254 278.007L689.598 279.896ZM721.157 289.8C726.587 291.17 732.023 292.292 737.434 293.033L737.706 291.052C732.384 290.323 727.022 289.217 721.646 287.86L721.157 289.8ZM754.058 293.965C759.633 293.771 765.147 293.01 770.564 291.527L770.037 289.598C764.786 291.035 759.426 291.777 753.989 291.966L754.058 293.965ZM785.96 285.074C790.524 282.421 794.976 279.102 799.292 275.018L797.917 273.565C793.708 277.548 789.38 280.773 784.955 283.345L785.96 285.074ZM810.288 262.485C811.881 260.329 813.45 258.042 814.994 255.619L813.307 254.544C811.787 256.93 810.244 259.179 808.679 261.297L810.288 262.485Z" fill="#E0E0E0" style="fill:#E0E0E0;fill:color(display-p3 0.8784 0.8784 0.8784);fill-opacity:1;"/>
<circle cx="497.953" cy="129.102" r="16.2401" fill="#F2C94C" style="fill:#F2C94C;fill:color(display-p3 0.9490 0.7882 0.2980);fill-opacity:1;"/>
<path d="M448.707 94.6497C447.395 94.6497 446.171 94.4177 445.035 93.9537C443.899 93.4897 442.907 92.8417 442.059 92.0097C441.211 91.1777 440.547 90.2017 440.067 89.0817C439.603 87.9457 439.371 86.7217 439.371 85.4097C439.371 84.0817 439.603 82.8577 440.067 81.7377C440.531 80.6177 441.187 79.6417 442.035 78.8097C442.883 77.9777 443.875 77.3377 445.011 76.8897C446.147 76.4257 447.379 76.1937 448.707 76.1937C450.035 76.1937 451.267 76.4257 452.403 76.8897C453.539 77.3537 454.531 78.0017 455.379 78.8337C456.227 79.6497 456.883 80.6177 457.347 81.7377C457.827 82.8577 458.067 84.0817 458.067 85.4097C458.067 86.7217 457.827 87.9457 457.347 89.0817C456.867 90.2017 456.203 91.1777 455.355 92.0097C454.507 92.8417 453.515 93.4897 452.379 93.9537C451.259 94.4177 450.035 94.6497 448.707 94.6497ZM448.707 91.6737C449.587 91.6737 450.395 91.5217 451.131 91.2177C451.867 90.8977 452.507 90.4577 453.051 89.8977C453.611 89.3377 454.035 88.6737 454.323 87.9057C454.627 87.1377 454.779 86.3057 454.779 85.4097C454.779 84.5137 454.627 83.6897 454.323 82.9377C454.035 82.1697 453.611 81.5057 453.051 80.9457C452.507 80.3697 451.867 79.9297 451.131 79.6257C450.395 79.3217 449.587 79.1697 448.707 79.1697C447.843 79.1697 447.043 79.3217 446.307 79.6257C445.571 79.9297 444.923 80.3697 444.363 80.9457C443.819 81.5057 443.395 82.1697 443.091 82.9377C442.787 83.6897 442.635 84.5137 442.635 85.4097C442.635 86.3057 442.787 87.1377 443.091 87.9057C443.395 88.6737 443.819 89.3377 444.363 89.8977C444.923 90.4577 445.571 90.8977 446.307 91.2177C447.043 91.5217 447.843 91.6737 448.707 91.6737ZM460.585 99.1617V81.3057H463.537V83.8977L463.249 83.2497C463.697 82.5457 464.305 82.0017 465.073 81.6177C465.841 81.2177 466.729 81.0177 467.737 81.0177C468.969 81.0177 470.081 81.3217 471.073 81.9297C472.065 82.5377 472.849 83.3537 473.425 84.3777C474.017 85.4017 474.313 86.5537 474.313 87.8337C474.313 89.0977 474.025 90.2497 473.449 91.2897C472.873 92.3297 472.089 93.1537 471.097 93.7617C470.105 94.3537 468.977 94.6497 467.713 94.6497C466.769 94.6497 465.897 94.4657 465.097 94.0977C464.313 93.7137 463.689 93.1697 463.225 92.4657L463.729 91.8417V99.1617H460.585ZM467.353 91.7697C468.073 91.7697 468.713 91.6017 469.273 91.2657C469.833 90.9297 470.265 90.4657 470.569 89.8737C470.889 89.2817 471.049 88.6017 471.049 87.8337C471.049 87.0657 470.889 86.3937 470.569 85.8177C470.265 85.2257 469.833 84.7617 469.273 84.4257C468.713 84.0737 468.073 83.8977 467.353 83.8977C466.665 83.8977 466.041 84.0657 465.481 84.4017C464.937 84.7377 464.505 85.2097 464.185 85.8177C463.881 86.4097 463.729 87.0817 463.729 87.8337C463.729 88.6017 463.881 89.2817 464.185 89.8737C464.505 90.4657 464.937 90.9297 465.481 91.2657C466.041 91.6017 466.665 91.7697 467.353 91.7697ZM482.782 94.6497C481.438 94.6497 480.262 94.3457 479.254 93.7377C478.246 93.1297 477.462 92.3057 476.902 91.2657C476.342 90.2257 476.062 89.0737 476.062 87.8097C476.062 86.4977 476.342 85.3377 476.902 84.3297C477.478 83.3057 478.254 82.4977 479.23 81.9057C480.222 81.3137 481.326 81.0177 482.542 81.0177C483.566 81.0177 484.462 81.1857 485.23 81.5217C486.014 81.8577 486.678 82.3217 487.222 82.9137C487.766 83.5057 488.182 84.1857 488.47 84.9537C488.758 85.7057 488.902 86.5217 488.902 87.4017C488.902 87.6257 488.886 87.8577 488.854 88.0977C488.838 88.3377 488.798 88.5457 488.734 88.7217H478.654V86.3217H486.958L485.47 87.4497C485.614 86.7137 485.574 86.0577 485.35 85.4817C485.142 84.9057 484.79 84.4497 484.294 84.1137C483.814 83.7777 483.23 83.6097 482.542 83.6097C481.886 83.6097 481.302 83.7777 480.79 84.1137C480.278 84.4337 479.886 84.9137 479.614 85.5537C479.358 86.1777 479.262 86.9377 479.326 87.8337C479.262 88.6337 479.366 89.3457 479.638 89.9697C479.926 90.5777 480.342 91.0497 480.886 91.3857C481.446 91.7217 482.086 91.8897 482.806 91.8897C483.526 91.8897 484.134 91.7377 484.63 91.4337C485.142 91.1297 485.542 90.7217 485.83 90.2097L488.374 91.4577C488.118 92.0817 487.718 92.6337 487.174 93.1137C486.63 93.5937 485.982 93.9697 485.23 94.2417C484.494 94.5137 483.678 94.6497 482.782 94.6497ZM491.166 94.3617V81.3057H494.118V83.8737L493.878 83.4177C494.182 82.6337 494.678 82.0417 495.366 81.6417C496.07 81.2257 496.886 81.0177 497.814 81.0177C498.774 81.0177 499.622 81.2257 500.358 81.6417C501.11 82.0577 501.694 82.6417 502.11 83.3937C502.526 84.1297 502.734 84.9857 502.734 85.9617V94.3617H499.59V86.7057C499.59 86.1297 499.478 85.6337 499.254 85.2177C499.03 84.8017 498.718 84.4817 498.318 84.2577C497.934 84.0177 497.478 83.8977 496.95 83.8977C496.438 83.8977 495.982 84.0177 495.582 84.2577C495.182 84.4817 494.87 84.8017 494.646 85.2177C494.422 85.6337 494.31 86.1297 494.31 86.7057V94.3617H491.166ZM505.272 94.3617V81.3057H508.416V94.3617H505.272ZM505.272 79.8417V76.4817H508.416V79.8417H505.272ZM511.199 94.3617V81.3057H514.151V83.8737L513.911 83.4177C514.215 82.6337 514.711 82.0417 515.399 81.6417C516.103 81.2257 516.919 81.0177 517.847 81.0177C518.807 81.0177 519.655 81.2257 520.391 81.6417C521.143 82.0577 521.727 82.6417 522.143 83.3937C522.559 84.1297 522.767 84.9857 522.767 85.9617V94.3617H519.623V86.7057C519.623 86.1297 519.511 85.6337 519.287 85.2177C519.063 84.8017 518.751 84.4817 518.351 84.2577C517.967 84.0177 517.511 83.8977 516.983 83.8977C516.471 83.8977 516.015 84.0177 515.615 84.2577C515.215 84.4817 514.903 84.8017 514.679 85.2177C514.455 85.6337 514.343 86.1297 514.343 86.7057V94.3617H511.199ZM531.642 99.6417C530.666 99.6417 529.762 99.4817 528.93 99.1617C528.098 98.8417 527.378 98.3937 526.77 97.8177C526.178 97.2577 525.746 96.5937 525.474 95.8257L528.402 94.7217C528.594 95.3297 528.97 95.8177 529.53 96.1857C530.106 96.5697 530.81 96.7617 531.642 96.7617C532.282 96.7617 532.842 96.6417 533.322 96.4017C533.818 96.1617 534.202 95.8097 534.474 95.3457C534.746 94.8977 534.882 94.3537 534.882 93.7137V90.7377L535.482 91.4577C535.034 92.2417 534.434 92.8337 533.682 93.2337C532.93 93.6337 532.074 93.8337 531.114 93.8337C529.898 93.8337 528.81 93.5537 527.85 92.9937C526.89 92.4337 526.138 91.6657 525.594 90.6897C525.05 89.7137 524.778 88.6177 524.778 87.4017C524.778 86.1697 525.05 85.0737 525.594 84.1137C526.138 83.1537 526.882 82.4017 527.826 81.8577C528.77 81.2977 529.842 81.0177 531.042 81.0177C532.018 81.0177 532.874 81.2257 533.61 81.6417C534.362 82.0417 534.986 82.6257 535.482 83.3937L535.05 84.1857V81.3057H538.026V93.7137C538.026 94.8497 537.746 95.8657 537.186 96.7617C536.642 97.6577 535.89 98.3617 534.93 98.8737C533.986 99.3857 532.89 99.6417 531.642 99.6417ZM531.498 90.9297C532.17 90.9297 532.754 90.7857 533.25 90.4977C533.762 90.1937 534.162 89.7777 534.45 89.2497C534.738 88.7217 534.882 88.1137 534.882 87.4257C534.882 86.7537 534.73 86.1537 534.426 85.6257C534.138 85.0817 533.738 84.6577 533.226 84.3537C532.73 84.0497 532.154 83.8977 531.498 83.8977C530.842 83.8977 530.25 84.0497 529.722 84.3537C529.194 84.6577 528.778 85.0817 528.474 85.6257C528.186 86.1537 528.042 86.7537 528.042 87.4257C528.042 88.0977 528.186 88.6977 528.474 89.2257C528.778 89.7537 529.186 90.1697 529.698 90.4737C530.226 90.7777 530.826 90.9297 531.498 90.9297Z" fill="#F2F2F2" style="fill:#F2F2F2;fill:color(display-p3 0.9490 0.9490 0.9490);fill-opacity:1;"/>
<circle cx="674.621" cy="205.965" r="16.2401" fill="#EF4444" style="fill:#EF4444;fill:color(display-p3 0.9373 0.2667 0.2667);fill-opacity:1;"/>
<path d="M617.005 162.342V144.462H623.653C624.869 144.462 625.941 144.686 626.869 145.134C627.813 145.566 628.549 146.206 629.077 147.054C629.605 147.886 629.869 148.902 629.869 150.102C629.869 151.334 629.573 152.382 628.981 153.246C628.405 154.11 627.621 154.75 626.629 155.166L630.733 162.342H627.037L622.645 154.494L624.757 155.742H620.269V162.342H617.005ZM620.269 152.862H623.701C624.293 152.862 624.805 152.75 625.237 152.526C625.669 152.286 626.005 151.958 626.245 151.542C626.485 151.126 626.605 150.646 626.605 150.102C626.605 149.542 626.485 149.062 626.245 148.662C626.005 148.246 625.669 147.926 625.237 147.702C624.805 147.462 624.293 147.342 623.701 147.342H620.269V152.862ZM637.954 162.63C636.61 162.63 635.434 162.326 634.426 161.718C633.418 161.11 632.634 160.286 632.074 159.246C631.514 158.206 631.234 157.054 631.234 155.79C631.234 154.478 631.514 153.318 632.074 152.31C632.65 151.286 633.426 150.478 634.402 149.886C635.394 149.294 636.498 148.998 637.714 148.998C638.738 148.998 639.634 149.166 640.402 149.502C641.186 149.838 641.85 150.302 642.394 150.894C642.938 151.486 643.354 152.166 643.642 152.934C643.93 153.686 644.074 154.502 644.074 155.382C644.074 155.606 644.058 155.838 644.026 156.078C644.01 156.318 643.97 156.526 643.906 156.702H633.826V154.302H642.13L640.642 155.43C640.786 154.694 640.746 154.038 640.522 153.462C640.314 152.886 639.962 152.43 639.466 152.094C638.986 151.758 638.402 151.59 637.714 151.59C637.058 151.59 636.474 151.758 635.962 152.094C635.45 152.414 635.058 152.894 634.786 153.534C634.53 154.158 634.434 154.918 634.498 155.814C634.434 156.614 634.538 157.326 634.81 157.95C635.098 158.558 635.514 159.03 636.058 159.366C636.618 159.702 637.258 159.87 637.978 159.87C638.698 159.87 639.306 159.718 639.802 159.414C640.314 159.11 640.714 158.702 641.002 158.19L643.546 159.438C643.29 160.062 642.89 160.614 642.346 161.094C641.802 161.574 641.154 161.95 640.402 162.222C639.666 162.494 638.85 162.63 637.954 162.63ZM652.673 167.622C651.697 167.622 650.793 167.462 649.961 167.142C649.129 166.822 648.409 166.374 647.801 165.798C647.209 165.238 646.777 164.574 646.505 163.806L649.433 162.702C649.625 163.31 650.001 163.798 650.561 164.166C651.137 164.55 651.841 164.742 652.673 164.742C653.313 164.742 653.873 164.622 654.353 164.382C654.849 164.142 655.233 163.79 655.505 163.326C655.777 162.878 655.913 162.334 655.913 161.694V158.718L656.513 159.438C656.065 160.222 655.465 160.814 654.713 161.214C653.961 161.614 653.105 161.814 652.145 161.814C650.929 161.814 649.841 161.534 648.881 160.974C647.921 160.414 647.169 159.646 646.625 158.67C646.081 157.694 645.809 156.598 645.809 155.382C645.809 154.15 646.081 153.054 646.625 152.094C647.169 151.134 647.913 150.382 648.857 149.838C649.801 149.278 650.873 148.998 652.073 148.998C653.049 148.998 653.905 149.206 654.641 149.622C655.393 150.022 656.017 150.606 656.513 151.374L656.081 152.166V149.286H659.057V161.694C659.057 162.83 658.777 163.846 658.217 164.742C657.673 165.638 656.921 166.342 655.961 166.854C655.017 167.366 653.921 167.622 652.673 167.622ZM652.529 158.91C653.201 158.91 653.785 158.766 654.281 158.478C654.793 158.174 655.193 157.758 655.481 157.23C655.769 156.702 655.913 156.094 655.913 155.406C655.913 154.734 655.761 154.134 655.457 153.606C655.169 153.062 654.769 152.638 654.257 152.334C653.761 152.03 653.185 151.878 652.529 151.878C651.873 151.878 651.281 152.03 650.753 152.334C650.225 152.638 649.809 153.062 649.505 153.606C649.217 154.134 649.073 154.734 649.073 155.406C649.073 156.078 649.217 156.678 649.505 157.206C649.809 157.734 650.217 158.15 650.729 158.454C651.257 158.758 651.857 158.91 652.529 158.91ZM661.874 162.342V149.286H665.018V162.342H661.874ZM661.874 147.822V144.462H665.018V147.822H661.874ZM672.768 162.63C671.376 162.63 670.16 162.302 669.12 161.646C668.096 160.974 667.392 160.07 667.008 158.934L669.36 157.806C669.696 158.542 670.16 159.118 670.752 159.534C671.36 159.95 672.032 160.158 672.768 160.158C673.344 160.158 673.8 160.03 674.136 159.774C674.472 159.518 674.64 159.182 674.64 158.766C674.64 158.51 674.568 158.302 674.424 158.142C674.296 157.966 674.112 157.822 673.872 157.71C673.648 157.582 673.4 157.478 673.128 157.398L670.992 156.798C669.888 156.478 669.048 155.99 668.472 155.334C667.912 154.678 667.632 153.902 667.632 153.006C667.632 152.206 667.832 151.51 668.232 150.918C668.648 150.31 669.216 149.838 669.936 149.502C670.672 149.166 671.512 148.998 672.456 148.998C673.688 148.998 674.776 149.294 675.72 149.886C676.664 150.478 677.336 151.31 677.736 152.382L675.336 153.51C675.112 152.918 674.736 152.446 674.208 152.094C673.68 151.742 673.088 151.566 672.432 151.566C671.904 151.566 671.488 151.686 671.184 151.926C670.88 152.166 670.728 152.478 670.728 152.862C670.728 153.102 670.792 153.31 670.92 153.486C671.048 153.662 671.224 153.806 671.448 153.918C671.688 154.03 671.96 154.134 672.264 154.23L674.352 154.854C675.424 155.174 676.248 155.654 676.824 156.294C677.416 156.934 677.712 157.718 677.712 158.646C677.712 159.43 677.504 160.126 677.088 160.734C676.672 161.326 676.096 161.79 675.36 162.126C674.624 162.462 673.76 162.63 672.768 162.63ZM685.961 162.486C684.489 162.486 683.345 162.086 682.529 161.286C681.729 160.47 681.329 159.326 681.329 157.854V152.094H679.073V149.286H679.313C679.953 149.286 680.449 149.118 680.801 148.782C681.153 148.446 681.329 147.958 681.329 147.318V146.31H684.473V149.286H687.473V152.094H684.473V157.686C684.473 158.118 684.545 158.486 684.689 158.79C684.849 159.094 685.089 159.326 685.409 159.486C685.745 159.646 686.169 159.726 686.681 159.726C686.793 159.726 686.921 159.718 687.065 159.702C687.225 159.686 687.377 159.67 687.521 159.654V162.342C687.297 162.374 687.041 162.406 686.753 162.438C686.465 162.47 686.201 162.486 685.961 162.486ZM689.803 162.342V149.286H692.755V152.19L692.515 151.758C692.819 150.782 693.291 150.102 693.931 149.718C694.587 149.334 695.371 149.142 696.283 149.142H697.051V151.926H695.923C695.027 151.926 694.307 152.206 693.763 152.766C693.219 153.31 692.947 154.078 692.947 155.07V162.342H689.803ZM702.619 162.63C701.707 162.63 700.915 162.478 700.243 162.174C699.571 161.87 699.051 161.438 698.683 160.878C698.315 160.302 698.131 159.638 698.131 158.886C698.131 158.166 698.291 157.526 698.611 156.966C698.931 156.39 699.427 155.91 700.099 155.526C700.771 155.142 701.619 154.87 702.643 154.71L706.915 154.014V156.414L703.243 157.038C702.619 157.15 702.155 157.35 701.851 157.638C701.547 157.926 701.395 158.302 701.395 158.766C701.395 159.214 701.563 159.574 701.899 159.846C702.251 160.102 702.683 160.23 703.195 160.23C703.851 160.23 704.427 160.094 704.923 159.822C705.435 159.534 705.827 159.142 706.099 158.646C706.387 158.15 706.531 157.606 706.531 157.014V153.654C706.531 153.094 706.307 152.63 705.859 152.262C705.427 151.878 704.851 151.686 704.131 151.686C703.459 151.686 702.859 151.87 702.331 152.238C701.819 152.59 701.443 153.062 701.203 153.654L698.635 152.406C698.891 151.718 699.291 151.126 699.835 150.63C700.395 150.118 701.051 149.718 701.803 149.43C702.555 149.142 703.371 148.998 704.251 148.998C705.323 148.998 706.267 149.198 707.083 149.598C707.899 149.982 708.531 150.526 708.979 151.23C709.443 151.918 709.675 152.726 709.675 153.654V162.342H706.699V160.11L707.371 160.062C707.035 160.622 706.635 161.094 706.171 161.478C705.707 161.846 705.179 162.134 704.587 162.342C703.995 162.534 703.339 162.63 702.619 162.63ZM717.429 162.63C716.037 162.63 714.821 162.302 713.781 161.646C712.757 160.974 712.053 160.07 711.669 158.934L714.021 157.806C714.357 158.542 714.821 159.118 715.413 159.534C716.021 159.95 716.693 160.158 717.429 160.158C718.005 160.158 718.461 160.03 718.797 159.774C719.133 159.518 719.301 159.182 719.301 158.766C719.301 158.51 719.229 158.302 719.085 158.142C718.957 157.966 718.773 157.822 718.533 157.71C718.309 157.582 718.061 157.478 717.789 157.398L715.653 156.798C714.549 156.478 713.709 155.99 713.133 155.334C712.573 154.678 712.293 153.902 712.293 153.006C712.293 152.206 712.493 151.51 712.893 150.918C713.309 150.31 713.877 149.838 714.597 149.502C715.333 149.166 716.173 148.998 717.117 148.998C718.349 148.998 719.437 149.294 720.381 149.886C721.325 150.478 721.997 151.31 722.397 152.382L719.997 153.51C719.773 152.918 719.397 152.446 718.869 152.094C718.341 151.742 717.749 151.566 717.093 151.566C716.565 151.566 716.149 151.686 715.845 151.926C715.541 152.166 715.389 152.478 715.389 152.862C715.389 153.102 715.453 153.31 715.581 153.486C715.709 153.662 715.885 153.806 716.109 153.918C716.349 154.03 716.621 154.134 716.925 154.23L719.013 154.854C720.085 155.174 720.909 155.654 721.485 156.294C722.077 156.934 722.373 157.718 722.373 158.646C722.373 159.43 722.165 160.126 721.749 160.734C721.333 161.326 720.757 161.79 720.021 162.126C719.285 162.462 718.421 162.63 717.429 162.63ZM724.669 162.342V149.286H727.813V162.342H724.669ZM724.669 147.822V144.462H727.813V147.822H724.669Z" fill="#F2F2F2" style="fill:#F2F2F2;fill:color(display-p3 0.9490 0.9490 0.9490);fill-opacity:1;"/>
<circle cx="223.17" cy="68.1223" r="16.2401" fill="#10B981" style="fill:#10B981;fill:color(display-p3 0.0627 0.7255 0.5059);fill-opacity:1;"/>
<path d="M134.023 118.077V100.197H140.695C141.911 100.197 142.983 100.421 143.911 100.869C144.855 101.301 145.591 101.941 146.119 102.789C146.647 103.621 146.911 104.637 146.911 105.837C146.911 107.021 146.639 108.037 146.095 108.885C145.567 109.717 144.839 110.357 143.911 110.805C142.983 111.253 141.911 111.477 140.695 111.477H137.287V118.077H134.023ZM137.287 108.597H140.743C141.335 108.597 141.847 108.485 142.279 108.261C142.711 108.021 143.047 107.693 143.287 107.277C143.527 106.861 143.647 106.381 143.647 105.837C143.647 105.277 143.527 104.797 143.287 104.397C143.047 103.981 142.711 103.661 142.279 103.437C141.847 103.197 141.335 103.077 140.743 103.077H137.287V108.597ZM152.388 118.365C151.476 118.365 150.684 118.213 150.012 117.909C149.34 117.605 148.82 117.173 148.452 116.613C148.084 116.037 147.9 115.373 147.9 114.621C147.9 113.901 148.06 113.261 148.38 112.701C148.7 112.125 149.196 111.645 149.868 111.261C150.54 110.877 151.388 110.605 152.412 110.445L156.684 109.749V112.149L153.012 112.773C152.388 112.885 151.924 113.085 151.62 113.373C151.316 113.661 151.164 114.037 151.164 114.501C151.164 114.949 151.332 115.309 151.668 115.581C152.02 115.837 152.452 115.965 152.964 115.965C153.62 115.965 154.196 115.829 154.692 115.557C155.204 115.269 155.596 114.877 155.868 114.381C156.156 113.885 156.3 113.341 156.3 112.749V109.389C156.3 108.829 156.076 108.365 155.628 107.997C155.196 107.613 154.62 107.421 153.9 107.421C153.228 107.421 152.628 107.605 152.1 107.973C151.588 108.325 151.212 108.797 150.972 109.389L148.404 108.141C148.66 107.453 149.06 106.861 149.604 106.365C150.164 105.853 150.82 105.453 151.572 105.165C152.324 104.877 153.14 104.733 154.02 104.733C155.092 104.733 156.036 104.933 156.852 105.333C157.668 105.717 158.3 106.261 158.748 106.965C159.212 107.653 159.444 108.461 159.444 109.389V118.077H156.468V115.845L157.14 115.797C156.804 116.357 156.404 116.829 155.94 117.213C155.476 117.581 154.948 117.869 154.356 118.077C153.764 118.269 153.108 118.365 152.388 118.365ZM162.23 118.077V105.021H165.182V108.045L164.846 107.541C165.086 106.597 165.566 105.893 166.286 105.429C167.006 104.965 167.854 104.733 168.83 104.733C169.902 104.733 170.846 105.013 171.662 105.573C172.478 106.133 173.006 106.869 173.246 107.781L172.358 107.853C172.758 106.813 173.358 106.037 174.158 105.525C174.958 104.997 175.878 104.733 176.918 104.733C177.846 104.733 178.67 104.941 179.39 105.357C180.126 105.773 180.702 106.357 181.118 107.109C181.534 107.845 181.742 108.701 181.742 109.677V118.077H178.598V110.421C178.598 109.845 178.494 109.349 178.286 108.933C178.078 108.517 177.79 108.197 177.422 107.973C177.054 107.733 176.606 107.613 176.078 107.613C175.582 107.613 175.142 107.733 174.758 107.973C174.374 108.197 174.078 108.517 173.87 108.933C173.662 109.349 173.558 109.845 173.558 110.421V118.077H170.414V110.421C170.414 109.845 170.31 109.349 170.102 108.933C169.894 108.517 169.598 108.197 169.214 107.973C168.846 107.733 168.406 107.613 167.894 107.613C167.398 107.613 166.958 107.733 166.574 107.973C166.19 108.197 165.894 108.517 165.686 108.933C165.478 109.349 165.374 109.845 165.374 110.421V118.077H162.23ZM190.473 118.365C189.129 118.365 187.953 118.061 186.945 117.453C185.937 116.845 185.153 116.021 184.593 114.981C184.033 113.941 183.753 112.789 183.753 111.525C183.753 110.213 184.033 109.053 184.593 108.045C185.169 107.021 185.945 106.213 186.921 105.621C187.913 105.029 189.017 104.733 190.233 104.733C191.257 104.733 192.153 104.901 192.921 105.237C193.705 105.573 194.369 106.037 194.913 106.629C195.457 107.221 195.873 107.901 196.161 108.669C196.449 109.421 196.593 110.237 196.593 111.117C196.593 111.341 196.577 111.573 196.545 111.813C196.529 112.053 196.489 112.261 196.425 112.437H186.345V110.037H194.649L193.161 111.165C193.305 110.429 193.265 109.773 193.041 109.197C192.833 108.621 192.481 108.165 191.985 107.829C191.505 107.493 190.921 107.325 190.233 107.325C189.577 107.325 188.993 107.493 188.481 107.829C187.969 108.149 187.577 108.629 187.305 109.269C187.049 109.893 186.953 110.653 187.017 111.549C186.953 112.349 187.057 113.061 187.329 113.685C187.617 114.293 188.033 114.765 188.577 115.101C189.137 115.437 189.777 115.605 190.497 115.605C191.217 115.605 191.825 115.453 192.321 115.149C192.833 114.845 193.233 114.437 193.521 113.925L196.065 115.173C195.809 115.797 195.409 116.349 194.865 116.829C194.321 117.309 193.673 117.685 192.921 117.957C192.185 118.229 191.369 118.365 190.473 118.365ZM198.857 118.077V105.021H201.809V107.925L201.569 107.493C201.873 106.517 202.345 105.837 202.985 105.453C203.641 105.069 204.425 104.877 205.337 104.877H206.105V107.661H204.977C204.081 107.661 203.361 107.941 202.817 108.501C202.273 109.045 202.001 109.813 202.001 110.805V118.077H198.857ZM211.673 118.365C210.761 118.365 209.969 118.213 209.297 117.909C208.625 117.605 208.105 117.173 207.737 116.613C207.369 116.037 207.185 115.373 207.185 114.621C207.185 113.901 207.345 113.261 207.665 112.701C207.985 112.125 208.481 111.645 209.153 111.261C209.825 110.877 210.673 110.605 211.697 110.445L215.969 109.749V112.149L212.297 112.773C211.673 112.885 211.209 113.085 210.905 113.373C210.601 113.661 210.449 114.037 210.449 114.501C210.449 114.949 210.617 115.309 210.953 115.581C211.305 115.837 211.737 115.965 212.249 115.965C212.905 115.965 213.481 115.829 213.977 115.557C214.489 115.269 214.881 114.877 215.153 114.381C215.441 113.885 215.585 113.341 215.585 112.749V109.389C215.585 108.829 215.361 108.365 214.913 107.997C214.481 107.613 213.905 107.421 213.185 107.421C212.513 107.421 211.913 107.605 211.385 107.973C210.873 108.325 210.497 108.797 210.257 109.389L207.689 108.141C207.945 107.453 208.345 106.861 208.889 106.365C209.449 105.853 210.105 105.453 210.857 105.165C211.609 104.877 212.425 104.733 213.305 104.733C214.377 104.733 215.321 104.933 216.137 105.333C216.953 105.717 217.585 106.261 218.033 106.965C218.497 107.653 218.729 108.461 218.729 109.389V118.077H215.753V115.845L216.425 115.797C216.089 116.357 215.689 116.829 215.225 117.213C214.761 117.581 214.233 117.869 213.641 118.077C213.049 118.269 212.393 118.365 211.673 118.365ZM221.515 118.077V105.021H224.467V107.589L224.227 107.133C224.531 106.349 225.027 105.757 225.715 105.357C226.419 104.941 227.235 104.733 228.163 104.733C229.123 104.733 229.971 104.941 230.707 105.357C231.459 105.773 232.043 106.357 232.459 107.109C232.875 107.845 233.083 108.701 233.083 109.677V118.077H229.939V110.421C229.939 109.845 229.827 109.349 229.603 108.933C229.379 108.517 229.067 108.197 228.667 107.973C228.283 107.733 227.827 107.613 227.299 107.613C226.787 107.613 226.331 107.733 225.931 107.973C225.531 108.197 225.219 108.517 224.995 108.933C224.771 109.349 224.659 109.845 224.659 110.421V118.077H221.515ZM243.367 118.077L238.567 100.197H242.071L245.839 115.437H244.927L248.863 100.197H252.247L256.159 115.437H255.247L259.015 100.197H262.519L257.719 118.077H253.975L250.015 103.245H251.071L247.111 118.077H243.367ZM264.116 118.077V105.021H267.26V118.077H264.116ZM264.116 103.557V100.197H267.26V103.557H264.116ZM275.011 118.365C273.619 118.365 272.403 118.037 271.363 117.381C270.339 116.709 269.635 115.805 269.251 114.669L271.603 113.541C271.939 114.277 272.403 114.853 272.995 115.269C273.603 115.685 274.275 115.893 275.011 115.893C275.587 115.893 276.043 115.765 276.379 115.509C276.715 115.253 276.883 114.917 276.883 114.501C276.883 114.245 276.811 114.037 276.667 113.877C276.539 113.701 276.355 113.557 276.115 113.445C275.891 113.317 275.643 113.213 275.371 113.133L273.235 112.533C272.131 112.213 271.291 111.725 270.715 111.069C270.155 110.413 269.875 109.637 269.875 108.741C269.875 107.941 270.075 107.245 270.475 106.653C270.891 106.045 271.459 105.573 272.179 105.237C272.915 104.901 273.755 104.733 274.699 104.733C275.931 104.733 277.019 105.029 277.963 105.621C278.907 106.213 279.579 107.045 279.979 108.117L277.579 109.245C277.355 108.653 276.979 108.181 276.451 107.829C275.923 107.477 275.331 107.301 274.675 107.301C274.147 107.301 273.731 107.421 273.427 107.661C273.123 107.901 272.971 108.213 272.971 108.597C272.971 108.837 273.035 109.045 273.163 109.221C273.291 109.397 273.467 109.541 273.691 109.653C273.931 109.765 274.203 109.869 274.507 109.965L276.595 110.589C277.667 110.909 278.491 111.389 279.067 112.029C279.659 112.669 279.955 113.453 279.955 114.381C279.955 115.165 279.747 115.861 279.331 116.469C278.915 117.061 278.339 117.525 277.603 117.861C276.867 118.197 276.003 118.365 275.011 118.365ZM286.211 118.365C285.299 118.365 284.507 118.213 283.835 117.909C283.163 117.605 282.643 117.173 282.275 116.613C281.907 116.037 281.723 115.373 281.723 114.621C281.723 113.901 281.883 113.261 282.203 112.701C282.523 112.125 283.019 111.645 283.691 111.261C284.363 110.877 285.211 110.605 286.235 110.445L290.507 109.749V112.149L286.835 112.773C286.211 112.885 285.747 113.085 285.443 113.373C285.139 113.661 284.987 114.037 284.987 114.501C284.987 114.949 285.155 115.309 285.491 115.581C285.843 115.837 286.275 115.965 286.787 115.965C287.443 115.965 288.019 115.829 288.515 115.557C289.027 115.269 289.419 114.877 289.691 114.381C289.979 113.885 290.123 113.341 290.123 112.749V109.389C290.123 108.829 289.899 108.365 289.451 107.997C289.019 107.613 288.443 107.421 287.723 107.421C287.051 107.421 286.451 107.605 285.923 107.973C285.411 108.325 285.035 108.797 284.795 109.389L282.227 108.141C282.483 107.453 282.883 106.861 283.427 106.365C283.987 105.853 284.643 105.453 285.395 105.165C286.147 104.877 286.963 104.733 287.843 104.733C288.915 104.733 289.859 104.933 290.675 105.333C291.491 105.717 292.123 106.261 292.571 106.965C293.035 107.653 293.267 108.461 293.267 109.389V118.077H290.291V115.845L290.963 115.797C290.627 116.357 290.227 116.829 289.763 117.213C289.299 117.581 288.771 117.869 288.179 118.077C287.587 118.269 286.931 118.365 286.211 118.365ZM301.771 118.221C300.299 118.221 299.155 117.821 298.339 117.021C297.539 116.205 297.139 115.061 297.139 113.589V107.829H294.883V105.021H295.123C295.763 105.021 296.259 104.853 296.611 104.517C296.963 104.181 297.139 103.693 297.139 103.053V102.045H300.283V105.021H303.283V107.829H300.283V113.421C300.283 113.853 300.355 114.221 300.499 114.525C300.659 114.829 300.899 115.061 301.219 115.221C301.555 115.381 301.979 115.461 302.491 115.461C302.603 115.461 302.731 115.453 302.875 115.437C303.035 115.421 303.187 115.405 303.331 115.389V118.077C303.107 118.109 302.851 118.141 302.563 118.173C302.275 118.205 302.011 118.221 301.771 118.221ZM309.526 118.365C308.614 118.365 307.822 118.213 307.15 117.909C306.478 117.605 305.958 117.173 305.59 116.613C305.222 116.037 305.038 115.373 305.038 114.621C305.038 113.901 305.198 113.261 305.518 112.701C305.838 112.125 306.334 111.645 307.006 111.261C307.678 110.877 308.526 110.605 309.55 110.445L313.822 109.749V112.149L310.15 112.773C309.526 112.885 309.062 113.085 308.758 113.373C308.454 113.661 308.302 114.037 308.302 114.501C308.302 114.949 308.47 115.309 308.806 115.581C309.158 115.837 309.59 115.965 310.102 115.965C310.758 115.965 311.334 115.829 311.83 115.557C312.342 115.269 312.734 114.877 313.006 114.381C313.294 113.885 313.438 113.341 313.438 112.749V109.389C313.438 108.829 313.214 108.365 312.766 107.997C312.334 107.613 311.758 107.421 311.038 107.421C310.366 107.421 309.766 107.605 309.238 107.973C308.726 108.325 308.35 108.797 308.11 109.389L305.542 108.141C305.798 107.453 306.198 106.861 306.742 106.365C307.302 105.853 307.958 105.453 308.71 105.165C309.462 104.877 310.278 104.733 311.158 104.733C312.23 104.733 313.174 104.933 313.99 105.333C314.806 105.717 315.438 106.261 315.886 106.965C316.35 107.653 316.582 108.461 316.582 109.389V118.077H313.606V115.845L314.278 115.797C313.942 116.357 313.542 116.829 313.078 117.213C312.614 117.581 312.086 117.869 311.494 118.077C310.902 118.269 310.246 118.365 309.526 118.365Z" fill="#F2F2F2" style="fill:#F2F2F2;fill:color(display-p3 0.9490 0.9490 0.9490);fill-opacity:1;"/>
</svg>
